<svg width="125" height="127" viewBox="0 0 125 127" fill="none" xmlns="http://www.w3.org/2000/svg">
<g clip-path="url(#clip0_158_50)">
<path d="M39.1722 79.9507C22.5777 75.8753 7.23084 61.0698 12.84 38.23C18.4491 15.3902 38.9084 9.37819 55.503 13.4536C64.7221 15.7177 72.4826 20.8399 77.4289 27.9198C82.779 35.6664 84.3038 45.1224 81.8352 55.1743C79.3666 65.2262 73.6496 72.8406 65.3196 77.2276C57.6564 81.2107 48.3319 82.2002 39.1722 79.9507Z" fill="url(#paint0_radial_158_50)"/>
<path d="M39.1722 79.9507C22.5777 75.8753 7.23084 61.0698 12.84 38.23C18.4491 15.3902 38.9084 9.37819 55.503 13.4536C64.7221 15.7177 72.4826 20.8399 77.4289 27.9198C82.779 35.6664 84.3038 45.1224 81.8352 55.1743C79.3666 65.2262 73.6496 72.8406 65.3196 77.2276C57.6564 81.2107 48.3319 82.2002 39.1722 79.9507Z" fill="url(#paint1_linear_158_50)"/>
<path d="M80.6759 33.9329C82.5899 39.8266 82.7476 46.3233 81.0839 53.0979C78.6153 63.1498 72.8983 70.7642 64.5683 75.1512C56.9051 79.1344 47.5806 80.1238 38.4209 77.8743C27.6791 75.2363 17.4874 68.098 13.115 57.1922C16.9352 69.2679 27.7643 77.1492 39.1723 79.9508C48.332 82.2003 57.6565 81.2109 65.3196 77.2277C73.6496 72.8407 79.3666 65.2263 81.8352 55.1744C83.6962 47.5968 83.2858 40.357 80.6759 33.9329V33.9329Z" fill="#EB8F00"/>
<path d="M11.51 45.5974C10.1047 46.6461 11.5491 50.7028 11.5227 52.582C11.4554 57.1188 10.2081 57.935 9.193 61.7346C8.09631 65.9177 8.48364 69.7589 11.13 72.799C13.6152 75.6734 16.9746 77.6589 21.9499 77.4302C26.9252 77.2016 30.1155 76.3832 30.9144 74.1577C31.2775 73.2441 31.0057 72.1935 30.2367 71.5758C30.7546 71.4697 31.2154 71.1855 31.539 70.7668C33.2939 68.3976 31.2245 67.2966 31.2245 67.2966C31.6169 67.0083 31.9706 66.6726 32.278 66.294C33.261 65.1416 33.5922 63.331 31.832 62.2807C31.0234 61.7983 30.7504 61.8826 30.7504 61.8826C31.8824 61.1768 33.1475 60.6991 34.4657 60.4931C38.0031 59.905 42.0023 60.0043 43.1452 59.4336C44.8113 58.5814 45.4569 56.3119 43.1982 55.032C39.964 53.1529 32.9679 53.9574 28.457 55.4795C23.9461 57.0015 20.0368 57.4604 18.9583 56.7162C17.8797 55.9721 17.3233 55.0534 17.3095 53.158C17.2859 49.6332 16.9531 48.1892 15.8368 46.597C14.9075 45.2966 12.5911 44.7908 11.51 45.5974V45.5974Z" fill="url(#paint2_radial_158_50)"/>
<path d="M45.1352 57.1852C46.0747 51.6391 34.518 52.3704 28.1592 54.6117C20.2534 57.4 19.4484 56.3636 18.8845 55.7836C18.2043 55.0868 17.801 54.5463 17.7882 52.9034C17.7608 49.1885 17.8325 47.8438 16.5803 46.0606C15.5503 44.5022 11.5282 43.5459 10.7814 45.4311C9.97437 47.4591 11.0675 48.1438 10.8787 52.3796C10.867 56.7157 9.35835 61.1382 9.35835 61.1382C9.35835 61.1382 12.2731 57.2817 12.1393 50.1224C12.222 48.2192 11.1793 45.018 14.0164 46.0489C16.7611 47.0447 16.3422 49.5464 16.3885 53.1588C16.4044 55.1998 16.6265 56.4526 18.434 57.4641C20.2311 58.4667 25.2937 57.0864 28.9932 55.8381C33.5249 54.3086 39.8706 53.5588 42.7027 55.2003C43.953 55.8101 44.4141 57.7333 42.7317 58.6004C40.0212 60.1357 31.3281 58.991 24.8767 63.2528C24.8767 63.2528 25.4398 63.6307 26.4801 63.4006C27.5264 63.172 31.4354 62.3031 31.4354 62.3031C32.3682 62.9988 32.4428 64.8523 31.6513 65.6355C30.3687 66.9035 26.2991 68.0924 24.5426 67.5664C24.5426 67.5664 24.2893 68.4692 26.1336 68.6635C26.7176 68.7249 29.1808 68.7875 31.1276 67.9223C32.1307 69.102 31.4176 70.5162 30.2358 71.3737C29.0614 72.2268 26.4951 73.0723 24.1453 72.7538C24.1453 72.7538 23.706 73.5667 25.2508 73.9271C26.7957 74.2876 28.6599 73.913 30.1263 73.2577C30.2391 73.5945 30.2553 74.2732 29.8324 75.0964C29.1796 76.3677 27.0295 77.2902 23.3393 77.1912C19.9372 77.0999 16.1759 76.6996 10.0469 71.3284C10.0469 71.3284 11.8329 75.3807 18.5299 77.6687C24.9532 79.8642 33.3343 78.8386 31.6922 72.2485C31.6922 72.2485 32.6008 71.4248 33.0171 70.0891C33.3045 69.1759 33.3242 67.8374 32.7819 67.0925C33.8887 65.3588 34.0079 64.0006 33.7874 63.1266C33.6394 62.5479 33.0721 61.8788 33.0721 61.8788C33.0721 61.8788 34.7366 60.9821 39.0055 60.9332C41.746 60.8936 44.5611 60.5759 45.1352 57.1852V57.1852Z" fill="#EB8F00"/>
<path d="M17.7871 51.5725C17.7871 51.5725 19.5118 56.953 26.6729 55.1169C26.6729 55.1169 21.7884 58.2374 18.9582 56.7162C16.1281 55.195 17.7871 51.5725 17.7871 51.5725Z" fill="#EB8F00"/>
<path d="M33.8861 63.9832C33.8861 63.9832 36.1205 61.202 39.0145 60.9226C39.0145 60.9226 34.5939 60.228 32.5095 61.6018L33.8861 63.9832Z" fill="#EB8F00"/>
<path d="M54.0021 53.6428C53.8205 53.5603 53.6611 53.4392 53.543 53.2778C51.3901 50.4685 48.5356 48.2754 45.2664 46.9188C42.0148 45.4959 38.4505 44.9611 34.9272 45.3635C34.7312 45.391 34.535 45.3681 34.352 45.2916C33.9532 45.118 33.6901 44.7254 33.6779 44.2873C33.6642 43.8551 33.9062 43.4604 34.2931 43.2716C41.8833 39.5859 51.0201 42.7505 54.7058 50.3407C55.007 50.9633 55.2652 51.6069 55.4833 52.2596C55.6231 52.666 55.5121 53.1181 55.1999 53.4135C54.8788 53.7193 54.4098 53.806 54.0021 53.6428V53.6428Z" fill="#422B0D"/>
<path d="M62.1938 30.3021C64.686 30.9142 66.435 33.5762 65.5761 37.0736C64.7172 40.5709 61.9355 42.114 59.4433 41.5019C56.9512 40.8899 55.2021 38.2278 56.0596 34.7364C56.917 31.245 59.7017 29.6901 62.1938 30.3021Z" fill="#422B0D"/>
<path d="M42.927 19.8251C40.4348 19.213 37.6516 20.762 36.7942 24.2534C35.9367 27.7448 37.6843 30.4129 40.1765 31.0249C42.6746 31.6384 45.4519 30.0879 46.3108 26.5906C47.1696 23.0932 45.4251 20.4386 42.927 19.8251V19.8251Z" fill="#422B0D"/>
<path d="M40.7752 12.1262C40.6157 11.6204 40.7144 11.0644 41.0379 10.6456C41.3793 10.2313 41.9043 10.0196 42.4378 10.0813C45.8036 10.3718 48.9222 11.9512 51.1505 14.4851C51.9862 15.4219 52.6739 16.4737 53.1941 17.6168C53.2271 17.688 53.2527 17.7636 53.2768 17.8452C53.5264 18.575 53.1851 19.3741 52.4868 19.7009C52.1222 19.8773 51.7062 19.9165 51.3151 19.8111C50.924 19.7058 50.5839 19.4631 50.3572 19.1274L50.7064 18.7843L50.3154 19.0667C48.247 16.2497 45.2922 14.2092 41.9253 13.2727C41.3602 13.1339 40.9098 12.708 40.7441 12.1501L40.7752 12.1262V12.1262Z" fill="#422B0D"/>
<path d="M69.8462 30.5478C70.0933 30.4799 70.3209 30.3545 70.5102 30.1817C70.6995 30.009 70.8452 29.7939 70.9354 29.554C71.0164 29.3046 71.0344 29.0391 70.9877 28.7811C70.941 28.5231 70.8311 28.2807 70.6678 28.0756C68.5963 25.3911 65.566 23.6063 62.2128 23.1107C60.9746 22.9139 59.7149 22.9072 58.4723 23.0877L58.2334 23.1362C57.487 23.325 57.0013 24.0445 57.104 24.8076C57.1538 25.2068 57.3453 25.5748 57.6435 25.8448C57.9418 26.1148 58.327 26.2688 58.7292 26.2788L58.8461 25.803L58.8154 26.2874C62.2981 26.4868 65.6148 27.85 68.2329 30.1579C68.6579 30.5587 69.2586 30.7062 69.821 30.5479L69.8462 30.5478V30.5478Z" fill="#422B0D"/>
<path d="M42.3597 21.6723C41.8523 21.0936 40.8968 21.004 40.0916 21.7144C39.285 22.4308 39.2593 23.383 39.7668 23.9617C40.2742 24.5404 41.2297 24.6301 42.0349 23.9196C42.8414 23.2033 42.8672 22.251 42.3597 21.6723Z" fill="#896024"/>
<path d="M61.6949 31.8195C61.1875 31.2408 60.232 31.1512 59.4268 31.8616C58.6203 32.578 58.5945 33.5303 59.102 34.109C59.6094 34.6877 60.5649 34.7773 61.3701 34.0668C62.1826 33.3519 62.2083 32.3997 61.6949 31.8195Z" fill="#896024"/>
</g>
<g clip-path="url(#clip1_158_50)">
<path d="M105.231 119.525C113.548 117.483 121.24 110.062 118.429 98.615C115.617 87.1678 105.363 84.1546 97.0461 86.1971C92.4255 87.3319 88.536 89.8991 86.0569 93.4475C83.3755 97.3301 82.6113 102.069 83.8485 107.107C85.0858 112.145 87.9511 115.962 92.1261 118.16C95.9668 120.157 100.64 120.653 105.231 119.525Z" fill="url(#paint3_radial_158_50)"/>
<path d="M105.231 119.525C113.548 117.483 121.24 110.062 118.429 98.615C115.617 87.1678 105.363 84.1546 97.0461 86.1971C92.4255 87.3319 88.536 89.8991 86.0569 93.4475C83.3755 97.3301 82.6113 102.069 83.8485 107.107C85.0858 112.145 87.9511 115.962 92.1261 118.16C95.9668 120.157 100.64 120.653 105.231 119.525Z" fill="url(#paint4_linear_158_50)"/>
<path d="M84.4294 96.4612C83.4702 99.4151 83.3911 102.671 84.225 106.067C85.4622 111.105 88.3276 114.921 92.5025 117.12C96.3433 119.116 101.017 119.612 105.607 118.485C110.991 117.162 116.099 113.585 118.291 108.119C116.376 114.171 110.949 118.121 105.231 119.525C100.64 120.653 95.9667 120.157 92.1259 118.16C87.951 115.962 85.0856 112.145 83.8484 107.107C82.9157 103.31 83.1214 99.681 84.4294 96.4612V96.4612Z" fill="#EB8F00"/>
<path d="M119.095 102.308C119.8 102.833 119.076 104.866 119.089 105.808C119.123 108.082 119.748 108.491 120.257 110.395C120.806 112.492 120.612 114.417 119.286 115.941C118.04 117.382 116.356 118.377 113.863 118.262C111.369 118.147 109.77 117.737 109.37 116.622C109.188 116.164 109.324 115.637 109.71 115.328C109.45 115.275 109.219 115.132 109.057 114.922C108.177 113.735 109.214 113.183 109.214 113.183C109.018 113.039 108.84 112.87 108.686 112.681C108.194 112.103 108.028 111.196 108.91 110.669C109.315 110.427 109.452 110.47 109.452 110.47C108.885 110.116 108.251 109.876 107.59 109.773C105.817 109.478 103.813 109.528 103.24 109.242C102.405 108.815 102.081 107.678 103.213 107.036C104.834 106.094 108.341 106.498 110.601 107.26C112.862 108.023 114.822 108.253 115.362 107.88C115.903 107.507 116.182 107.047 116.189 106.097C116.2 104.33 116.367 103.607 116.927 102.809C117.392 102.157 118.553 101.903 119.095 102.308V102.308Z" fill="url(#paint5_radial_158_50)"/>
<path d="M102.242 108.115C101.771 105.335 107.564 105.702 110.751 106.825C114.713 108.223 115.116 107.703 115.399 107.413C115.74 107.063 115.942 106.793 115.949 105.969C115.962 104.107 115.926 103.433 116.554 102.54C117.07 101.758 119.086 101.279 119.46 102.224C119.865 103.24 119.317 103.584 119.412 105.707C119.417 107.88 120.174 110.096 120.174 110.096C120.174 110.096 118.713 108.164 118.78 104.575C118.738 103.621 119.261 102.017 117.839 102.534C116.463 103.033 116.673 104.287 116.65 106.097C116.642 107.12 116.531 107.748 115.625 108.255C114.724 108.757 112.187 108.066 110.333 107.44C108.061 106.673 104.881 106.298 103.461 107.12C102.835 107.426 102.604 108.39 103.447 108.824C104.805 109.594 109.162 109.02 112.396 111.156C112.396 111.156 112.114 111.346 111.592 111.23C111.068 111.116 109.109 110.68 109.109 110.68C108.641 111.029 108.604 111.958 109 112.35C109.643 112.986 111.683 113.582 112.563 113.318C112.563 113.318 112.69 113.771 111.766 113.868C111.473 113.899 110.239 113.93 109.263 113.497C108.76 114.088 109.118 114.797 109.71 115.226C110.298 115.654 111.585 116.078 112.762 115.918C112.762 115.918 112.983 116.325 112.208 116.506C111.434 116.687 110.5 116.499 109.765 116.171C109.708 116.339 109.7 116.68 109.912 117.092C110.239 117.729 111.317 118.192 113.166 118.142C114.871 118.096 116.757 117.896 119.828 115.204C119.828 115.204 118.933 117.235 115.577 118.381C112.357 119.482 108.157 118.968 108.98 115.665C108.98 115.665 108.524 115.252 108.316 114.583C108.172 114.125 108.162 113.454 108.434 113.081C107.879 112.212 107.819 111.531 107.93 111.093C108.004 110.803 108.288 110.468 108.288 110.468C108.288 110.468 107.454 110.018 105.314 109.994C103.941 109.974 102.53 109.815 102.242 108.115V108.115Z" fill="#EB8F00"/>
<path d="M115.949 105.302C115.949 105.302 115.085 107.999 111.495 107.078C111.495 107.078 113.944 108.642 115.362 107.88C116.781 107.117 115.949 105.302 115.949 105.302Z" fill="#EB8F00"/>
<path d="M107.88 111.522C107.88 111.522 106.76 110.128 105.31 109.988C105.31 109.988 107.526 109.64 108.57 110.329L107.88 111.522Z" fill="#EB8F00"/>
<path d="M97.7981 106.34C97.8891 106.298 97.969 106.238 98.0281 106.157C99.1072 104.749 100.538 103.65 102.176 102.97C103.806 102.257 105.592 101.989 107.358 102.19C107.457 102.204 107.555 102.192 107.647 102.154C107.846 102.067 107.978 101.87 107.984 101.651C107.991 101.434 107.87 101.236 107.676 101.142C103.872 99.2944 99.2927 100.881 97.4454 104.685C97.2944 104.997 97.165 105.319 97.0557 105.646C96.9856 105.85 97.0413 106.077 97.1977 106.225C97.3587 106.378 97.5937 106.421 97.7981 106.34V106.34Z" fill="#422B0D"/>
<path d="M93.6926 94.6413C92.4435 94.9481 91.5669 96.2823 91.9974 98.0352C92.4278 99.788 93.8221 100.561 95.0711 100.255C96.3202 99.9479 97.1968 98.6137 96.767 96.8638C96.3373 95.1139 94.9416 94.3346 93.6926 94.6413Z" fill="#422B0D"/>
<path d="M103.349 89.3904C104.598 89.0836 105.993 89.86 106.423 91.6099C106.852 93.3597 105.976 94.6969 104.727 95.0037C103.475 95.3112 102.083 94.5341 101.653 92.7812C101.222 91.0284 102.097 89.6979 103.349 89.3904V89.3904Z" fill="#422B0D"/>
<path d="M104.428 85.5316C104.508 85.278 104.458 84.9994 104.296 84.7895C104.125 84.5818 103.862 84.4758 103.594 84.5067C101.907 84.6523 100.344 85.4439 99.2275 86.7138C98.8086 87.1833 98.464 87.7105 98.2032 88.2834C98.1867 88.3191 98.1739 88.357 98.1618 88.3979C98.0367 88.7637 98.2078 89.1642 98.5577 89.328C98.7405 89.4164 98.949 89.436 99.145 89.3832C99.341 89.3304 99.5114 89.2088 99.6251 89.0405L99.4501 88.8686L99.646 89.0101C100.683 87.5983 102.164 86.5756 103.851 86.1062C104.134 86.0366 104.36 85.8232 104.443 85.5436L104.428 85.5316V85.5316Z" fill="#422B0D"/>
<path d="M89.8572 94.7647C89.7333 94.7306 89.6193 94.6678 89.5244 94.5812C89.4295 94.4946 89.3565 94.3868 89.3113 94.2666C89.2707 94.1416 89.2616 94.0085 89.285 93.8792C89.3085 93.7499 89.3635 93.6284 89.4454 93.5256C90.4836 92.1801 92.0024 91.2856 93.683 91.0372C94.3036 90.9386 94.9349 90.9352 95.5577 91.0257L95.6775 91.05C96.0516 91.1446 96.295 91.5052 96.2435 91.8877C96.2185 92.0878 96.1226 92.2722 95.9731 92.4076C95.8236 92.5429 95.6305 92.6201 95.429 92.6251L95.3704 92.3866L95.3858 92.6294C93.6402 92.7293 91.9779 93.4125 90.6658 94.5693C90.4527 94.7701 90.1517 94.8441 89.8698 94.7647L89.8572 94.7647V94.7647Z" fill="#422B0D"/>
<path d="M103.633 90.3162C103.887 90.0261 104.366 89.9812 104.77 90.3373C105.174 90.6963 105.187 91.1736 104.933 91.4636C104.678 91.7537 104.199 91.7986 103.796 91.4425C103.392 91.0835 103.379 90.6062 103.633 90.3162Z" fill="#896024"/>
<path d="M93.9425 95.4019C94.1968 95.1118 94.6757 95.0669 95.0792 95.423C95.4835 95.782 95.4964 96.2593 95.2421 96.5493C94.9877 96.8394 94.5088 96.8843 94.1053 96.5282C93.6981 96.1699 93.6851 95.6926 93.9425 95.4019Z" fill="#896024"/>
</g>
<defs>
<radialGradient id="paint0_radial_158_50" cx="0" cy="0" r="1" gradientUnits="userSpaceOnUse" gradientTransform="translate(47.3376 46.7021) rotate(13.798) scale(34.8857)">
<stop offset="0.5" stop-color="#FDE030"/>
<stop offset="0.92" stop-color="#F7C02B"/>
<stop offset="1" stop-color="#F4A223"/>
</radialGradient>
<linearGradient id="paint1_linear_158_50" x1="39.1722" y1="79.9507" x2="55.503" y2="13.4536" gradientUnits="userSpaceOnUse">
<stop stop-color="#F4A223"/>
<stop offset="0.08" stop-color="#F7C02B"/>
<stop offset="0.54" stop-color="#FDE030" stop-opacity="0"/>
</linearGradient>
<radialGradient id="paint2_radial_158_50" cx="0" cy="0" r="1" gradientUnits="userSpaceOnUse" gradientTransform="translate(31.152 55.7278) rotate(13.798) scale(36.3997 34.2157)">
<stop offset="0.27" stop-color="#FFF176"/>
<stop offset="1" stop-color="#FFC400"/>
</radialGradient>
<radialGradient id="paint3_radial_158_50" cx="0" cy="0" r="1" gradientUnits="userSpaceOnUse" gradientTransform="translate(101.139 102.861) rotate(166.202) scale(17.4846)">
<stop offset="0.5" stop-color="#FDE030"/>
<stop offset="0.92" stop-color="#F7C02B"/>
<stop offset="1" stop-color="#F4A223"/>
</radialGradient>
<linearGradient id="paint4_linear_158_50" x1="105.231" y1="119.525" x2="97.0461" y2="86.1971" gradientUnits="userSpaceOnUse">
<stop stop-color="#F4A223"/>
<stop offset="0.08" stop-color="#F7C02B"/>
<stop offset="0.54" stop-color="#FDE030" stop-opacity="0"/>
</linearGradient>
<radialGradient id="paint5_radial_158_50" cx="0" cy="0" r="1" gradientUnits="userSpaceOnUse" gradientTransform="translate(109.251 107.385) rotate(166.202) scale(18.2434 17.1488)">
<stop offset="0.27" stop-color="#FFF176"/>
<stop offset="1" stop-color="#FFC400"/>
</radialGradient>
<clipPath id="clip0_158_50">
<rect width="78.3949" height="78.3949" fill="white" transform="translate(18.697) rotate(13.798)"/>
</clipPath>
<clipPath id="clip1_158_50">
<rect width="39.2912" height="39.2912" fill="white" transform="matrix(-0.971143 0.238499 0.238499 0.971143 115.493 79.4541)"/>
</clipPath>
</defs>
</svg>
