<svg width="61" height="52" viewBox="0 0 61 52" fill="none" xmlns="http://www.w3.org/2000/svg">
<path d="M59.7797 18.5841L49.7548 6.57661C49.5904 6.37962 49.3471 6.26584 49.0905 6.26584H42.2544C41.7763 6.26584 41.3889 6.65336 41.3889 7.13135C41.3889 7.60934 41.7763 7.99686 42.2544 7.99686H47.3224L39.7642 17.7279L32.206 7.99686H38.2114C38.6895 7.99686 39.0769 7.60934 39.0769 7.13135C39.0769 6.65336 38.6895 6.26584 38.2114 6.26584H18.0515L16.1138 5.29693C15.7923 5.13618 15.5417 4.86383 15.4082 4.53009L13.9889 0.981617C13.8574 0.652954 13.5393 0.4375 13.1853 0.4375C12.8315 0.4375 12.5131 0.652954 12.3818 0.981501L10.9624 4.52997C10.8289 4.86371 10.5782 5.13606 10.2568 5.29681L8.13527 6.35758C7.84204 6.50414 7.65682 6.80384 7.65682 7.13169C7.65682 7.45955 7.84204 7.75924 8.13527 7.9058L9.45858 8.5674L1.09661 18.5841C0.817451 18.9185 0.83026 19.4083 1.12673 19.7276L10.657 29.9941C10.8276 30.1778 11.0592 30.2707 11.2916 30.2707C11.5023 30.2707 11.7136 30.1942 11.8803 30.0395C12.2306 29.7143 12.2509 29.1667 11.9257 28.8164L3.74552 20.0043H20.4695L28.529 46.7015L23.2299 40.9927L23.7142 40.7506C24.0074 40.604 24.1927 40.3043 24.1927 39.9765C24.1927 39.6486 24.0074 39.3489 23.7142 39.2024L22.07 38.3801C21.8635 38.277 21.7026 38.1021 21.6169 37.8877L20.5169 35.1376C20.3855 34.8091 20.0673 34.5936 19.7134 34.5936C19.3594 34.5936 19.0411 34.8091 18.9098 35.1376L18.5738 35.9777L14.6891 31.793C14.364 31.4427 13.8164 31.4224 13.466 31.7476C13.1156 32.0728 13.0953 32.6204 13.4205 32.9707L17.8626 37.7558L17.8098 37.8876C17.7241 38.1019 17.5632 38.2769 17.3567 38.38L15.7125 39.2021C15.4193 39.3488 15.2341 39.6484 15.2341 39.9763C15.2341 40.3041 15.4193 40.6038 15.7125 40.7504L17.3567 41.5724C17.5632 41.6757 17.7241 41.8505 17.8098 42.0648L18.9098 44.8149C19.0413 45.1435 19.3594 45.3589 19.7134 45.3589C20.0673 45.3589 20.3856 45.1435 20.5169 44.8149L21.6169 42.0648C21.6409 42.0049 21.6713 41.9486 21.7062 41.8956L29.8037 50.6191C29.9674 50.7956 30.1973 50.8957 30.4381 50.8957C30.6788 50.8957 30.9085 50.7955 31.0724 50.6191L46.1916 34.3325L46.5377 35.1976C46.6692 35.5262 46.9874 35.7416 47.3413 35.7416C47.6953 35.7416 48.0134 35.5262 48.145 35.1976L49.245 32.4474C49.3306 32.2332 49.4916 32.0582 49.6979 31.9551L51.3422 31.133C51.6354 30.9863 51.8206 30.6866 51.8206 30.3588C51.8206 30.0311 51.6354 29.7313 51.3422 29.5847L50.8343 29.3307L54.7157 25.1497C55.0409 24.7994 55.0207 24.2518 54.6702 23.9266C54.3199 23.6013 53.7723 23.6217 53.4471 23.9721L49.3199 28.4179C49.2909 28.3712 49.2656 28.3219 49.2449 28.2702L48.1449 25.5201C48.0133 25.1915 47.6951 24.9761 47.3412 24.9761C46.9873 24.9761 46.6691 25.1915 46.5376 25.5201L45.4376 28.2703C45.3519 28.4845 45.1909 28.6594 44.9845 28.7626L43.3403 29.5847C43.0471 29.7313 42.8618 30.031 42.8618 30.3588C42.8618 30.6867 43.047 30.9864 43.3403 31.133L44.9844 31.955C45.1908 32.0582 45.3518 32.2331 45.4374 32.4474L45.4801 32.5541L32.3472 46.7018L40.4069 20.0043H57.1308L56.2131 20.9928C55.8881 21.3431 55.9082 21.8907 56.2587 22.2159C56.4254 22.3707 56.6365 22.4471 56.8474 22.4471C57.0797 22.4471 57.3114 22.354 57.482 22.1704L59.7497 19.7276C60.0461 19.4083 60.059 18.9184 59.7797 18.5841ZM45.7589 30.3111C46.345 30.0181 46.8017 29.5216 47.0451 28.9133L47.3414 28.1722L47.6378 28.9132C47.8811 29.5216 48.3378 30.0181 48.9239 30.3111L49.02 30.3591L48.924 30.407H48.9239C48.3379 30.7 47.8812 31.1964 47.6378 31.8047L47.3414 32.5458L47.0451 31.8048C46.8018 31.1964 46.3451 30.7 45.7588 30.407L45.6629 30.3591L45.7589 30.3111ZM57.2654 18.2733H41.5323L49.1148 8.51085L57.2654 18.2733ZM10.8806 9.56504C10.9108 9.6194 10.9389 9.67502 10.9623 9.73341L12.3817 13.2819C12.5131 13.6104 12.8313 13.8259 13.1852 13.8259C13.5392 13.8259 13.8574 13.6104 13.9888 13.2818L14.4912 12.0257L19.3443 18.2733H3.61085L10.8806 9.56504ZM37.996 18.2733H22.8807L30.4381 8.54259L37.996 18.2733ZM18.0534 7.99674H28.6701L21.1126 17.7278L15.2364 10.1632L15.4083 9.73341C15.5418 9.39967 15.7924 9.12744 16.1139 8.96657L18.0534 7.99674ZM11.0308 6.84504C11.7319 6.49456 12.2783 5.90071 12.5694 5.17287L13.1852 3.63342L13.801 5.17287C14.0922 5.90071 14.6386 6.49456 15.3397 6.84504L15.9129 7.13169L15.3397 7.41835C14.6386 7.76882 14.0922 8.36268 13.801 9.09051L13.1852 10.63L12.5694 9.09051C12.2784 8.36279 11.7319 7.76894 11.0308 7.41847L10.4576 7.13181L11.0308 6.84504ZM20.0098 41.4221L19.7134 42.1632L19.4169 41.4221C19.1735 40.8138 18.7169 40.3174 18.1307 40.0244L18.0348 39.9765L18.1307 39.9285C18.7168 39.6355 19.1735 39.1391 19.4169 38.5307L19.7134 37.7896L20.0098 38.5307C20.2532 39.1391 20.71 39.6355 21.296 39.9285L21.3919 39.9765L21.296 40.0244C20.71 40.3174 20.2532 40.8137 20.0098 41.4221ZM30.4382 47.0362L22.2777 20.0043H38.5988L30.4382 47.0362Z" fill="#FF3C32" stroke="#FF3C32" stroke-width="0.369281"/>
</svg>
