<svg width="59" height="59" viewBox="0 0 59 59" fill="none" xmlns="http://www.w3.org/2000/svg">
<path d="M29.1824 7.85161C29.8185 7.85161 30.3341 7.33777 30.3341 6.70394V1.58517C30.3341 0.951337 29.8185 0.4375 29.1824 0.4375C28.5464 0.4375 28.0307 0.951337 28.0307 1.58517V6.70394C28.0308 7.33777 28.5465 7.85161 29.1824 7.85161Z" fill="#FF3C32"/>
<path d="M57.3341 39.8653L55.2995 37.8435C54.5758 37.1232 53.6112 36.7264 52.5833 36.7264C51.9261 36.7264 51.2952 36.8894 50.7361 37.1947L46.9022 33.3787L47.0889 33.1928C48.6443 31.6398 48.6437 29.1162 47.0888 27.5684C46.5331 27.0137 45.8398 26.6437 45.084 26.4881C45.1881 26.1301 45.2428 25.7552 45.2428 25.3715C45.2428 24.3054 44.8273 23.3058 44.075 22.5593C43.5193 22.0045 42.826 21.6346 42.0702 21.4789C42.1743 21.121 42.2291 20.7462 42.2291 20.3624C42.2291 19.2962 41.8135 18.2967 41.06 17.549C40.491 16.9826 39.7914 16.6241 39.0569 16.4715C39.4499 15.1215 39.1141 13.6025 38.0483 12.5386C37.1611 11.6583 35.9573 11.2799 34.7971 11.4025L27.1998 9.96952C26.0411 9.75049 24.5942 9.60565 23.6808 10.4358C23.6232 10.4883 23.5644 10.5485 23.5065 10.6157C22.0903 10.1013 20.4385 10.4076 19.3045 11.5364C18.5521 12.2853 18.1377 13.2844 18.1377 14.35C18.1377 14.7338 18.1922 15.1086 18.2962 15.4666C17.5412 15.6222 16.8488 15.9916 16.2949 16.5446C15.5411 17.2927 15.1254 18.2907 15.1246 19.355C15.1243 19.7397 15.179 20.1158 15.2836 20.4747C14.5282 20.63 13.8353 20.9987 13.2798 21.5516C12.5259 22.3021 12.1108 23.3018 12.1108 24.3668C12.1108 25.1825 12.3552 25.9595 12.8081 26.6159C12.2363 26.8091 11.7125 27.1306 11.274 27.5672C9.71756 29.1162 9.71699 31.6399 11.275 33.1952L11.4611 33.3798L7.62665 37.1939C6.20165 36.5253 4.44592 36.7758 3.26999 37.9461L1.2342 39.9691C0.510092 40.6898 0.111442 41.6511 0.111328 42.6759C0.111328 43.7009 0.510092 44.6623 1.2342 45.3831L3.77487 47.9119C4.22487 48.3598 4.95413 48.3594 5.40355 47.9109C5.85309 47.4625 5.85263 46.7358 5.40264 46.2879L2.86196 43.7592C2.57355 43.4722 2.41471 43.0874 2.41471 42.676C2.41471 42.2648 2.57355 41.8802 2.86128 41.5938L4.89718 39.5707C5.40584 39.0644 6.18438 38.9889 6.77561 39.3412C6.81723 39.4035 6.86538 39.4628 6.9205 39.5178C7.01919 39.6164 7.13183 39.6919 7.25145 39.7472L18.9265 51.3644C18.982 51.4849 19.0581 51.5983 19.1575 51.6974C19.2543 51.7939 19.3646 51.8686 19.4817 51.9235C19.7286 52.2017 19.865 52.557 19.865 52.936C19.865 53.3474 19.7062 53.732 19.4178 54.0191L17.384 56.0434C16.783 56.6397 15.8055 56.6396 15.2064 56.0453L12.6657 53.5132C12.2159 53.065 11.4868 53.065 11.037 53.5132C10.5872 53.9614 10.5872 54.688 11.037 55.1362L13.5795 57.6701C14.3279 58.4127 15.3107 58.7839 16.2939 58.7839C17.2774 58.7839 18.2613 58.4122 19.0106 57.6688L21.0457 55.6432C21.7698 54.9224 22.1685 53.9611 22.1685 52.936C22.1685 52.2045 21.9644 51.506 21.5849 50.9036L25.9002 46.6085C25.9048 46.6038 25.9094 46.5992 25.9141 46.5945C26.4082 46.0854 27.7843 46.1807 29.1151 46.2728C30.0606 46.3383 31.1147 46.4111 32.1446 46.2929L36.8703 50.9965C36.5642 51.5527 36.4007 52.1806 36.4007 52.8345C36.4007 53.8584 36.7995 54.8192 37.5236 55.54L39.5588 57.5656C40.2825 58.2859 41.2471 58.6827 42.2749 58.6827C43.3027 58.6827 44.2673 58.286 44.991 57.5656L57.3349 45.2798C58.059 44.5591 58.4577 43.5977 58.4577 42.5728C58.4576 41.548 58.0589 40.5866 57.3341 39.8653ZM26.771 12.2248L31.7669 13.1671L28.7766 16.1458C28.314 15.9243 27.68 15.5111 26.9845 14.8481C26.0324 13.9405 25.3514 12.8927 25.2895 12.2391C25.2893 12.2388 25.2893 12.2384 25.2893 12.2381C25.2893 12.238 25.2892 12.2379 25.2892 12.2377C25.2848 12.1908 25.2836 12.1533 25.2842 12.1247C25.4348 12.0882 25.8348 12.0478 26.771 12.2248ZM20.9321 13.1605C21.5156 12.5796 22.422 12.5126 23.0812 12.9575C23.4548 14.5185 24.7911 15.9333 25.3923 16.5065C25.8378 16.9313 27.2674 18.205 28.7103 18.5551C28.9056 18.834 29.0118 19.1664 29.0118 19.5172C29.0118 19.969 28.8374 20.3914 28.5196 20.7078C28.2027 21.0241 27.7781 21.1983 27.3239 21.1983C26.8695 21.1983 26.4449 21.0241 26.1266 20.7063L26.1264 20.7062L20.932 15.5392C20.6153 15.2241 20.4409 14.8017 20.4409 14.35C20.4411 13.8981 20.6155 13.4757 20.9321 13.1605ZM17.9227 18.1686C18.2396 17.8523 18.6637 17.6781 19.1173 17.6781C19.5714 17.6781 19.9969 17.8527 20.3158 18.1702L24.4981 22.3295C25.1567 22.9868 25.1567 24.0564 24.5004 24.7115C24.1818 25.0277 23.7557 25.2018 23.3007 25.2018C22.8456 25.2018 22.4196 25.0277 22.1023 24.7128L18.9294 21.5516C18.9245 21.5467 18.9191 21.5422 18.9141 21.5372L17.9214 20.5485C17.6029 20.2314 17.4276 19.8082 17.428 19.3567C17.4284 18.9067 17.6032 18.4856 17.9227 18.1686ZM14.9075 23.1757C15.2247 22.8601 15.6497 22.6863 16.1046 22.6863C16.5558 22.6863 16.9772 22.8576 17.2929 23.1677L20.4755 26.3377C20.7928 26.6526 20.9677 27.0746 20.9677 27.5259C20.9677 27.9771 20.7928 28.399 20.4742 28.7153C20.1572 29.0307 19.7326 29.2045 19.2785 29.2045C18.8237 29.2045 18.3977 29.0303 18.0803 28.7153L16.9265 27.5669C16.9263 27.5666 16.926 27.5664 16.9257 27.5661L14.9077 25.5575C14.5895 25.2408 14.4143 24.8178 14.4143 24.3665C14.4143 23.9154 14.5895 23.4922 14.9075 23.1757ZM12.9017 29.1911C13.2202 28.874 13.6458 28.6994 14.1002 28.6994C14.5544 28.6994 14.9799 28.8739 15.2983 29.1907L16.4537 30.3407C16.7711 30.6556 16.9459 31.0776 16.9459 31.5289C16.9459 31.9802 16.771 32.402 16.4513 32.7195C16.1344 33.0358 15.7098 33.21 15.2555 33.21C14.8012 33.21 14.3766 33.0359 14.0574 32.7173L13.9128 32.5737C13.9108 32.5717 13.9093 32.5697 13.9075 32.5679C13.9053 32.5658 13.903 32.564 13.9009 32.5619L12.9029 31.5713C12.2443 30.9136 12.2437 29.846 12.9017 29.1911ZM36.3717 42.2345C35.9222 41.7859 35.1929 41.7856 34.743 42.2334L33.7184 43.2532C32.7448 44.2235 30.9806 44.1013 29.2745 43.9834C27.4218 43.8551 25.5059 43.7226 24.2662 44.991L20.0241 49.2131L9.416 38.6575L13.1701 34.9233C13.7906 35.3023 14.5066 35.5055 15.2558 35.5055C16.326 35.5055 17.3296 35.092 18.0792 34.3437C18.8339 33.5947 19.2496 32.5952 19.2496 31.529C19.2496 31.5191 19.2489 31.5093 19.2489 31.4994C19.2588 31.4995 19.2688 31.5001 19.2787 31.5001C20.3475 31.5001 21.3503 31.0879 22.101 30.3408C22.8556 29.5918 23.2713 28.5922 23.2713 27.5261C23.2713 27.5162 23.2706 27.5064 23.2706 27.4965C23.2807 27.4965 23.2907 27.4972 23.3009 27.4972C24.3693 27.4972 25.3727 27.0854 26.1284 26.3355C26.9129 25.5525 27.3009 24.5216 27.2935 23.4929C27.3038 23.493 27.314 23.4936 27.3243 23.4936C28.3946 23.4935 29.3981 23.0802 30.1488 22.3307C30.9012 21.5818 31.3156 20.5827 31.3156 19.5172C31.3156 18.772 31.1123 18.0596 30.7332 17.4425L34.0236 14.165C34.2688 13.9217 34.5711 13.769 34.888 13.706C34.9223 13.7023 34.9562 13.6969 34.9897 13.6903C35.4981 13.6204 36.0321 13.7767 36.4209 14.1626C37.0795 14.82 37.0795 15.8896 36.4233 16.5447L35.4212 17.5392C35.4178 17.5425 35.4143 17.5455 35.411 17.5488L34.2568 18.697C33.8067 19.1449 33.8062 19.8716 34.2558 20.32C34.7054 20.7685 35.4345 20.7689 35.8844 20.321L36.8905 19.3198C36.8908 19.3196 36.891 19.3193 36.8912 19.3191L37.0433 19.1681C37.7037 18.516 38.7737 18.5174 39.4334 19.1739C39.7508 19.4889 39.9257 19.9109 39.9257 20.3622C39.9257 20.8133 39.7508 21.2353 39.4309 21.5528L38.423 22.5592C38.4229 22.5593 38.4228 22.5594 38.4227 22.5596L37.2686 23.705C36.8179 24.1523 36.8164 24.879 37.2653 25.328C37.7141 25.7771 38.4433 25.7785 38.894 25.3313L40.0533 24.1807C40.3702 23.8643 40.7948 23.6902 41.249 23.6902C41.7034 23.6902 42.1281 23.8643 42.4473 24.1829C42.7647 24.498 42.9395 24.92 42.9395 25.3713C42.9395 25.8225 42.7647 26.2444 42.4454 26.5612L40.4362 28.5643C39.9865 29.0126 39.9866 29.7392 40.4364 30.1873C40.6614 30.4113 40.9559 30.5232 41.2506 30.5232C41.5454 30.5232 41.8403 30.4111 42.0651 30.1869L43.0498 29.2053C43.0554 29.1999 43.0615 29.1953 43.0671 29.1897C43.384 28.8733 43.8086 28.6992 44.2628 28.6992C44.7171 28.6992 45.1418 28.8733 45.4598 29.1908C46.1177 29.8457 46.1171 30.9135 45.4598 31.5697L44.4586 32.5663C44.4582 32.5666 44.4578 32.5669 44.4574 32.5673C44.4571 32.5676 44.4568 32.5681 44.4564 32.5684L42.8673 34.1501C42.4173 34.598 42.4169 35.3247 42.8663 35.7732C43.0912 35.9975 43.3863 36.1098 43.6812 36.1098C43.9757 36.1098 44.2702 35.9979 44.4951 35.7742L45.2724 35.0005L48.9978 38.7086L38.3906 49.2659L34.59 45.4832C34.855 45.3134 35.1085 45.1137 35.3465 44.8766L36.3706 43.8573C36.8208 43.4096 36.8212 42.6829 36.3717 42.2345ZM55.707 43.6557L43.3632 55.9416C43.0744 56.229 42.6879 56.3873 42.2748 56.3873C41.8618 56.3873 41.4752 56.229 41.1864 55.9414L39.1512 53.9158C38.8627 53.6289 38.7039 53.2449 38.7039 52.8345C38.7039 52.4242 38.8627 52.0402 39.1512 51.7532L51.495 39.4673C51.7838 39.1798 52.1703 39.0215 52.5834 39.0215C52.9965 39.0215 53.383 39.1798 53.6726 39.468L55.7071 41.4897C55.9955 41.7768 56.1544 42.1613 56.1544 42.5727C56.1542 42.9842 55.9954 43.3688 55.707 43.6557Z" fill="#FF3C32"/>
<path d="M13.8895 6.88411C14.1144 7.10769 14.4087 7.21937 14.7031 7.21937C14.9981 7.21937 15.2933 7.10701 15.5182 6.8824C15.9675 6.43374 15.9668 5.70715 15.5166 5.25941L11.3199 1.08569C10.8698 0.637952 10.1406 0.638522 9.69126 1.08729C9.24195 1.53594 9.24263 2.26254 9.69286 2.71028L13.8895 6.88411Z" fill="#FF3C32"/>
<path d="M43.6617 7.21937C43.9562 7.21937 44.2508 7.10746 44.4756 6.88376L48.6691 2.70994C49.1191 2.26208 49.1196 1.53537 48.67 1.08695C48.2206 0.638522 47.4915 0.638066 47.0413 1.08604L42.8479 5.25986C42.3979 5.70772 42.3974 6.43443 42.8469 6.88285C43.0719 7.10724 43.3668 7.21937 43.6617 7.21937Z" fill="#FF3C32"/>
<path d="M7.1929 49.8046C6.74702 50.2565 6.75319 50.9832 7.20685 51.4276L7.21016 51.4308C7.43396 51.65 7.72454 51.7592 8.01501 51.7592C8.31314 51.7592 8.61127 51.6442 8.83712 51.4153C9.283 50.9633 9.27511 50.235 8.82157 49.7907C8.36814 49.3464 7.639 49.3526 7.1929 49.8046Z" fill="#FF3C32"/>
<path d="M39.1885 40.5812C39.3637 40.5812 39.5415 40.5414 39.7083 40.4576C40.2762 40.1722 40.5043 39.482 40.218 38.9161C39.9315 38.3502 39.2389 38.1227 38.6711 38.4082L38.6647 38.4114C38.0968 38.6969 37.8718 39.3854 38.1582 39.9513C38.3604 40.3511 38.767 40.5812 39.1885 40.5812Z" fill="#FF3C32"/>
</svg>
