<svg width="48" height="54" viewBox="0 0 48 54" fill="none" xmlns="http://www.w3.org/2000/svg">
<path d="M4.91755 32.6793C5.31347 32.1948 6.02713 32.1231 6.51155 32.519C6.99597 32.9149 7.06772 33.6286 6.6718 34.113L2.80064 38.8495C2.40472 39.3339 1.69105 39.4057 1.20663 39.0097C0.722211 38.6138 0.650469 37.9001 1.04639 37.4157L4.91755 32.6793Z" fill="#FF3C32"/>
<path d="M21.7583 46.4434C22.1542 45.959 22.8679 45.8872 23.3523 46.2831C23.8367 46.6791 23.9085 47.3927 23.5126 47.8771L19.6414 52.6136C19.2455 53.098 18.5318 53.1698 18.0474 52.7739C17.563 52.3779 17.4912 51.6643 17.8872 51.1798L21.7583 46.4434Z" fill="#FF3C32"/>
<path d="M41.1988 32.695C39.9062 30.2414 40.2049 27.2685 41.96 25.1211L41.9609 25.1198C47.3525 18.5221 49.1245 9.70649 46.7003 1.53791C46.5681 1.09216 46.1771 0.77257 45.714 0.731773C37.2258 -0.017952 28.9388 3.47367 23.5463 10.0715C21.7913 12.2189 18.9373 13.1033 16.2755 12.325C12.051 11.0897 7.52156 12.4936 4.73626 15.9015L3.32651 17.6263C2.93065 18.1107 3.00232 18.8244 3.48675 19.2203L12.3427 26.4584L9.90532 29.4406C9.50946 29.925 9.58113 30.6387 10.0656 31.0346L11.4816 32.192C8.75393 35.981 7.91939 40.8265 9.25781 45.3369C9.324 45.5597 9.45481 45.751 9.62699 45.8918C9.79917 46.0325 10.0127 46.1226 10.2442 46.1431C14.9309 46.557 19.5133 44.7747 22.6835 41.3474L24.0995 42.5047C24.584 42.9007 25.2977 42.8288 25.6935 42.3445L28.1309 39.3623L36.9869 46.6003C37.4713 46.9963 38.1851 46.9244 38.5809 46.4401L39.9907 44.7152C42.776 41.3073 43.2502 36.589 41.1988 32.695ZM42.5503 2.91449C43.8531 2.86461 44.9806 3.78614 45.1911 5.07283C45.5952 7.54371 45.5969 10.0417 45.2156 12.4758C45.0396 13.5993 43.717 14.034 42.8365 13.3143C42.3521 12.9184 41.6384 12.9901 41.2425 13.4746C40.8466 13.959 40.9183 14.6727 41.4027 15.0686L42.3002 15.8021C43.2995 16.6189 43.6816 17.9924 43.1143 19.1517C42.3311 20.7524 41.3594 22.2756 40.2056 23.6873L31.0216 34.9242C29.9731 36.2071 28.0831 36.3971 26.8002 35.3486L16.5409 26.9635C15.258 25.915 15.068 24.0251 16.1165 22.7422L25.3006 11.5052C26.4543 10.0936 27.7536 8.83819 29.1664 7.75194C30.1896 6.96525 31.6117 7.06632 32.6111 7.8831L33.5105 8.61816C33.9949 9.0141 34.7085 8.94236 35.1045 8.45792C35.5004 7.97349 35.4287 7.25985 34.9442 6.86392C34.0628 6.1435 34.2257 4.75946 35.2929 4.36308C37.6017 3.50553 40.0492 3.01024 42.5503 2.91449ZM6.49051 17.3352C8.69893 14.6332 12.2901 13.5201 15.6396 14.4996C16.9974 14.8967 18.3926 14.9668 19.7285 14.7427L12.4638 23.6313L6.64538 18.8758C6.17719 18.4932 6.10785 17.8034 6.49051 17.3352ZM11.229 43.9317C10.4028 40.3641 11.1363 36.621 13.2407 33.6298L20.9243 39.9097C18.4119 42.5673 14.8896 44.0312 11.229 43.9317ZM25.5164 38.9811C25.0413 39.5624 24.1849 39.6485 23.6036 39.1733L13.429 30.8575C12.8477 30.3824 12.7616 29.526 13.2367 28.9447C13.7118 28.3634 14.5682 28.2773 15.1495 28.7524L25.3241 37.0683C25.9055 37.5434 25.9915 38.3997 25.5164 38.9811ZM30.8774 38.6809L38.1422 29.7922C38.1884 31.1461 38.535 32.4994 39.1943 33.7511C40.8209 36.8387 40.4449 40.5796 38.2365 43.2815C37.8538 43.7497 37.1641 43.8191 36.6959 43.4364L30.8774 38.6809Z" fill="#FF3C32"/>
<path d="M28.7615 22.4802C29.6937 23.2421 29.9192 24.5139 29.2643 25.3151C28.6094 26.1164 27.3183 26.1485 26.3861 25.3865C25.4539 24.6246 25.2283 23.353 25.8832 22.5517C26.2791 22.0673 26.2074 21.3536 25.7229 20.9577C25.2385 20.5618 24.5249 20.6335 24.1289 21.1179C22.9141 22.6043 22.9817 24.7498 24.1616 26.3182L23.9268 26.6055C23.531 27.0898 23.6026 27.8036 24.0871 28.1995C24.5715 28.5954 25.2852 28.5236 25.6811 28.0392L25.9158 27.752C27.6878 28.5961 29.8037 28.2353 31.0186 26.7489C32.4641 24.9803 32.0947 22.2784 30.1952 20.726C29.263 19.9641 29.0375 18.6924 29.6924 17.891C30.3473 17.0897 31.6385 17.0576 32.5707 17.8195C33.5029 18.5814 33.7285 19.8531 33.0735 20.6545C32.6776 21.1389 32.7493 21.8525 33.2338 22.2485C33.7182 22.6444 34.4319 22.5726 34.8278 22.0882C36.0427 20.6018 35.9751 18.4563 34.7952 16.8878L35.1994 16.3932C35.5954 15.9088 35.5236 15.1952 35.0392 14.7992C34.5548 14.4033 33.8411 14.475 33.4452 14.9595L33.041 15.4541C31.269 14.61 29.1531 14.9708 27.9382 16.4573C26.4926 18.2259 26.862 20.9277 28.7615 22.4802Z" fill="#FF3C32"/>
<path d="M37.4556 11.8427C37.6863 12.0313 37.9893 12.1224 38.2858 12.0925C38.5823 12.0627 38.8611 11.9132 39.0496 11.6825C39.2381 11.4518 39.3292 11.1488 39.2994 10.8523C39.2696 10.5558 39.12 10.277 38.8894 10.0885C38.6587 9.89992 38.3557 9.80882 38.0592 9.83863C37.7627 9.86843 37.4839 10.018 37.2954 10.2487C37.1068 10.4794 37.0157 10.7824 37.0455 11.0789C37.0753 11.3754 37.2249 11.6542 37.4556 11.8427Z" fill="#FF3C32"/>
</svg>
