<svg width="54" height="48" viewBox="0 0 54 48" fill="none" xmlns="http://www.w3.org/2000/svg">
<path d="M4.70408 19.8853C4.39177 19.8853 4.07946 19.7303 3.92331 19.5752C3.14254 19.2651 2.98638 18.3349 3.45485 17.5597C7.98332 10.4278 17.0403 6.08664 26.878 6.08664C36.8718 6.08664 45.7726 10.4278 50.3011 17.5597C50.7696 18.3349 50.6134 19.2651 49.8326 19.7303C49.0519 20.1954 48.1149 20.0403 47.6465 19.2651C43.7426 13.0635 35.6226 9.18746 26.7218 9.18746C17.821 9.18746 9.85717 13.0635 5.79716 19.2651C5.79716 19.7303 5.17254 19.8853 4.70408 19.8853Z" fill="#FF3C32"/>
<path d="M26.878 42.6751C16.8841 42.6751 7.98332 38.334 3.45485 31.2021C2.98638 30.5819 3.14254 29.6517 3.92331 29.1866C4.70408 28.7214 5.641 28.8765 6.10947 29.6517C10.0133 35.8533 18.1333 39.7293 27.0341 39.7293C35.9349 39.7293 43.8988 35.8533 47.9588 29.6517C48.4272 28.8765 49.3642 28.7214 50.1449 29.1866C50.9257 29.6517 51.0819 30.5819 50.6134 31.3571C45.9288 38.334 36.8718 42.6751 26.878 42.6751Z" fill="#FF3C32"/>
<path d="M25.6587 33.3702C20.9741 33.3702 17.0703 29.4942 17.0703 24.843C17.0703 20.1917 20.9741 16.3157 25.6587 16.3157C30.3434 16.3157 34.2472 20.1917 34.2472 24.843C34.2472 29.4942 30.3434 33.3702 25.6587 33.3702ZM25.6587 19.4165C22.6918 19.4165 20.1933 21.8972 20.1933 24.843C20.1933 27.7888 22.6918 30.2694 25.6587 30.2694C28.6257 30.2694 31.1241 27.7888 31.1241 24.843C31.1241 21.8972 28.6257 19.4165 25.6587 19.4165Z" fill="#FF3C32"/>
<path d="M52.3313 14.613C51.8628 14.613 51.3944 14.3029 51.082 13.9929C50.9259 13.8378 50.7697 13.6828 50.6136 13.3727C50.1451 12.7525 50.3013 11.6672 50.9259 11.2021C51.5505 10.737 52.6436 10.892 53.1121 11.5122C53.2682 11.6672 53.4244 11.9773 53.5805 12.1324C54.049 12.9076 53.8928 13.8378 53.1121 14.3029C52.7997 14.458 52.4874 14.613 52.3313 14.613Z" fill="#FF3C32"/>
<path d="M44.3672 7.47911C44.0549 7.47911 43.8988 7.47911 43.5865 7.32407C43.2742 7.16902 42.8057 6.85894 42.3372 6.7039C41.5565 6.23878 41.2442 5.30853 41.7126 4.68837C42.1811 3.91316 43.118 3.60308 43.7426 4.0682C44.2111 4.22324 44.6795 4.53333 44.9919 4.84341C45.7726 5.30853 45.9288 6.23878 45.6165 7.01398C45.4603 7.32407 44.8357 7.47911 44.3672 7.47911ZM10.3256 7.47911C9.85717 7.47911 9.23255 7.16902 8.92024 6.7039C8.45178 5.9287 8.76409 4.99845 9.54486 4.53333C10.0133 4.22324 10.4818 4.0682 10.7941 3.75812C11.5749 3.293 12.5118 3.60308 12.8241 4.37829C13.1364 5.15349 12.9803 6.08374 12.1995 6.39382C11.731 6.54886 11.4187 6.85894 10.9502 7.01398C10.7941 7.47911 10.4818 7.47911 10.3256 7.47911ZM33.7488 3.91316C33.5926 3.91316 33.5926 3.91316 33.4364 3.91316C32.968 3.91316 32.4995 3.75812 32.0311 3.75812C31.2503 3.60308 30.6257 2.82788 30.6257 2.05267C30.7818 1.27746 31.5626 0.657301 32.3434 0.657301C32.8118 0.657301 33.2803 0.812341 33.7488 0.812341C34.5295 0.967382 35.1541 1.74259 34.998 2.67283C35.1541 3.293 34.3734 3.91316 33.7488 3.91316ZM20.9441 3.75812C20.1633 3.75812 19.5387 3.293 19.3826 2.51779C19.2264 1.74259 19.851 0.812342 20.6318 0.657301C21.1003 0.50226 21.5687 0.502259 22.0372 0.502259C22.818 0.347218 23.5987 0.967382 23.7549 1.89763C23.911 2.67283 23.2864 3.44804 22.3495 3.60308C21.881 3.60308 21.4126 3.75812 20.9441 3.75812C21.1003 3.75812 21.1003 3.75812 20.9441 3.75812Z" fill="#FF3C32"/>
<path d="M2.36177 14.613C2.04946 14.613 1.73715 14.458 1.42484 14.3029C0.644073 13.8378 0.487919 12.9076 0.956381 12.1324C1.11254 11.9773 1.26869 11.6672 1.42484 11.5122C1.89331 10.892 2.98639 10.737 3.611 11.2021C4.23562 11.6672 4.39177 12.7525 3.92331 13.3727C3.76716 13.5277 3.611 13.6828 3.45485 13.9929C3.29869 14.3029 2.83023 14.613 2.36177 14.613Z" fill="#FF3C32"/>
<path d="M2.83023 37.4061C2.36177 37.4061 1.8933 37.2511 1.581 36.786C1.42484 36.6309 1.26869 36.3209 1.11253 36.1658C0.64407 35.3906 0.800225 34.4604 1.581 33.9952C2.36177 33.5301 3.29869 33.6852 3.76715 34.4604C3.92331 34.6154 4.07946 34.9255 4.23562 35.0805C4.70408 35.7007 4.54792 36.786 3.92331 37.2511C3.45485 37.4062 3.14254 37.4061 2.83023 37.4061Z" fill="#FF3C32"/>
<path d="M32.1873 47.7886C31.4066 47.7886 30.782 47.1684 30.6258 46.3932C30.4697 45.618 31.0943 44.8428 32.0312 44.6878C32.4997 44.6878 32.9681 44.5327 33.4366 44.5327C34.3735 44.3777 35.1543 44.9979 35.3104 45.7731C35.4666 46.5483 34.842 47.4785 34.0612 47.6335C33.5927 47.7886 33.1243 47.7886 32.6558 47.7886C32.3435 47.7886 32.3435 47.7886 32.1873 47.7886ZM22.3496 47.7886H22.1935C21.725 47.7886 21.2566 47.6335 20.7881 47.6335C20.0073 47.4785 19.3827 46.7033 19.5389 45.7731C19.695 44.9979 20.4758 44.3777 21.4127 44.5327C21.8812 44.5327 22.3496 44.6878 22.8181 44.6878C23.5989 44.8428 24.2235 45.618 24.2235 46.3932C23.755 47.1684 23.1304 47.7886 22.3496 47.7886ZM43.1181 44.5327C42.4935 44.5327 42.0251 44.2226 41.7128 43.7575C41.4004 42.9823 41.5566 42.0521 42.3374 41.742C42.8058 41.5869 43.1181 41.2769 43.5866 41.1218C44.3674 40.6567 45.3043 40.9668 45.7728 41.742C46.2412 42.5172 45.9289 43.4474 45.1481 43.9126C44.6797 44.2226 44.2112 44.3777 43.8989 44.6878C43.5866 44.5327 43.2743 44.5327 43.1181 44.5327ZM11.575 44.5327C11.2627 44.5327 11.1065 44.5327 10.7942 44.3777C10.3258 44.2226 9.85731 43.9126 9.545 43.6025C8.76423 43.1374 8.60807 42.2071 8.92038 41.4319C9.38884 40.6567 10.3258 40.5017 11.1065 40.8117C11.4188 40.9668 11.8873 41.2769 12.3558 41.4319C13.1365 41.897 13.4489 42.8273 12.9804 43.4474C12.6681 44.2226 12.0435 44.5327 11.575 44.5327Z" fill="#FF3C32"/>
<path d="M51.8626 37.4037C51.5503 37.4037 51.238 37.2487 50.9257 37.0936C50.3011 36.6285 50.1449 35.5432 50.6134 34.9231C50.7696 34.768 50.9257 34.4579 51.0819 34.3029C51.5503 33.5277 52.4872 33.3727 53.268 33.8378C54.0488 34.3029 54.2049 35.2332 53.7365 36.0084C53.5803 36.1634 53.4242 36.4735 53.268 36.6285C52.7996 37.2487 52.3311 37.4037 51.8626 37.4037Z" fill="#FF3C32"/>
</svg>
