<svg width="161" height="13" viewBox="0 0 161 13" fill="none" xmlns="http://www.w3.org/2000/svg">
<path d="M16.6772 5.54593L11.2047 0.576172L5.73224 5.54593L0.259766 0.576172V12.4436H22.1496V0.576172L16.6772 5.54593Z" fill="#FF3C32"/>
<path d="M157.906 5.41697C157.566 5.41697 150.055 5.41697 150.055 5.41697C149.716 5.41697 149.452 5.11707 149.452 4.73149C149.452 4.3459 149.716 4.04601 150.055 4.04601H159.604V1.26123H144.243C142.545 1.26123 141.148 2.84641 141.148 4.77433C141.148 6.70225 142.545 8.28743 144.243 8.28743H152.584C152.924 8.28743 153.188 8.58733 153.188 8.97291C153.188 9.3585 152.924 9.6584 152.584 9.6584H141.526V12.4432H157.906C159.604 12.4432 161 10.858 161 8.93007C161 7.00215 159.604 5.41697 157.906 5.41697Z" fill="#FF3C32"/>
<path d="M135.562 1.26123H127.372H119.711V12.4432H127.372H135.675C138.468 12.4432 140.733 9.78693 140.582 6.57372C140.506 3.57474 138.242 1.26123 135.562 1.26123ZM130.392 9.6584H127.976V4.04601H130.392C131.75 4.04601 132.845 5.28844 132.845 6.83078C132.845 8.41596 131.75 9.6584 130.392 9.6584Z" fill="#FF3C32"/>
<path d="M110.578 12.4437H118.843L114.767 1.26172H101.557L97.4814 12.4437H104.048L104.69 10.6443H109.898L110.578 12.4437ZM105.445 8.6735L107.332 3.53238L109.219 8.6735H105.445Z" fill="#FF3C32"/>
<path fill-rule="evenodd" clip-rule="evenodd" d="M46.6433 1.26123H54.9086V12.4432H46.6433V1.26123ZM55.7765 6.57372C55.8897 3.57474 58.1919 1.26123 60.8338 1.26123H74.8358V4.08885H67.4385C66.0799 4.08885 64.9854 5.33129 64.9854 6.87362C64.9854 8.41596 66.0799 9.6584 67.4385 9.6584H74.8358V12.4432H60.7206C57.89 12.4432 55.6255 9.78693 55.7765 6.57372ZM88.3475 1.26123V5.41697H84.3469V1.26123H76.0816V12.4432H84.3469V8.28743H88.3475V12.4432H96.6506V1.26123H88.3475ZM42.1141 1.26155C44.1521 1.26155 45.8127 3.14663 45.8127 5.46014C45.8127 7.55943 44.4541 9.27314 42.6802 9.57304L44.7937 12.4435H36.6794L34.6413 9.65872H33.4714V12.4435H25.2061V1.26155H42.1141ZM33.4714 6.87395H36.7926C37.4719 6.87395 38.0381 6.23131 38.0381 5.46014C38.0381 4.68897 37.4719 4.04633 36.7926 4.04633H33.4714V6.87395Z" fill="#FF3C32"/>
</svg>
