<svg width="162" height="220" viewBox="0 0 162 220" fill="none" xmlns="http://www.w3.org/2000/svg">
<path d="M148.789 217.732C156.713 191.982 164.41 166.67 158.264 139.695C154.15 121.636 145.705 103.984 134.925 88.9644C109.828 53.9948 75.4802 32.6355 35.7507 17.5364C27.919 14.56 20.0504 12.1598 11.7687 10.7885C8.57373 10.2595 -1.17799 10.5853 2.05845 10.4699C20.5806 9.80943 39.3923 10.1708 57.5465 14.0491C67.248 16.1216 76.894 18.9559 86.282 22.1596C90.7285 23.6771 94.8843 25.0584 87.9216 22.5384C78.0854 18.9785 68.0593 16.1149 58.3006 12.2949C49.0228 8.6631 39.2891 4.53882 29.345 3.07916C22.4313 2.06431 -1.92311 -0.823132 7.06197 12.4596C12.6175 20.6725 21.2812 27.2269 28.2321 34.1922C36.8059 42.7839 44.9762 50.718 52.2484 60.4487" stroke="black" stroke-width="3" stroke-linecap="round"/>
</svg>
