<svg width="148" height="209" viewBox="0 0 148 209" fill="none" xmlns="http://www.w3.org/2000/svg">
<path d="M38.346 110.213C39.0293 110.805 57.7038 126.256 52.1968 117.209C47.5238 109.532 35.9468 107.375 27.7458 108.022C18.1956 108.776 -0.620539 113.09 2.30555 126.466C3.70027 132.842 13.1088 132.928 18.0644 132.261C34.8809 129.997 49.7941 114.5 49.7941 97.3513C49.7941 90.9218 50.7943 110.267 52.6208 116.432C55.129 124.897 56.3835 133.526 58.6982 142.013" stroke="#222222" stroke-width="3" stroke-linecap="round"/>
<path d="M63.7865 103.853C72.8472 84.9916 83.9871 65.6989 89.9335 45.4813C92.4351 36.9756 91.7708 27.5216 91.7708 18.769C91.7708 3.71691 73.3609 7.03404 64.7052 12.9743C50.0532 23.0296 54.2776 46.5603 57.8504 61.3108C66.2626 96.0412 80.0273 128.994 87.3894 164.061C89.71 175.115 95.8314 188.352 91.4175 199.607C85.4045 214.94 58.0819 202.583 48.9463 196.992C35.7305 188.905 17.267 176.255 16.2979 158.973C15.7315 148.872 34.1481 141.012 40.4662 136.854C58.1568 125.213 73.3863 112.763 89.2268 98.7646" stroke="#222222" stroke-width="3" stroke-linecap="round"/>
<path d="M99.4021 103.853C108.424 83.8248 115.433 64.3406 118.624 42.5133C119.739 34.8846 120.662 26.5944 118.129 19.1223C116.21 13.461 104.95 -5.46216 97.4234 5.20083C94.957 8.69497 95.8192 13.638 96.4341 17.497C99.5616 37.1247 106.307 55.9245 113.465 74.3843C121.411 94.8763 130.405 117.648 144.559 134.946C150.851 142.637 137.464 135.051 134.595 133.816C115.747 125.704 97.6481 122.37 77.2125 121.732C73.2552 121.608 68.9 122.2 64.9871 121.52C62.0786 121.014 76.6431 109.696 77.3539 109.082C99.2302 90.172 118.893 68.7979 140.107 49.156" stroke="#222222" stroke-width="3" stroke-linecap="round"/>
</svg>
