<svg width="165" height="30" viewBox="0 0 165 30" fill="none" xmlns="http://www.w3.org/2000/svg">
<path d="M56.0249 5.25676H63.3353V29.1664H69.6023V5.25676H77.1824V0.163583H57.9348L56.0249 5.25676Z" fill="#222222"/>
<path d="M79.2913 3.46177C79.2913 2.49354 79.6295 1.67783 80.3059 1.01466C80.9824 0.338219 81.7981 0 82.753 0C83.708 0 84.5237 0.338219 85.2001 1.01466C85.8766 1.67783 86.2148 2.49354 86.2148 3.46177C86.2148 4.41674 85.8766 5.22581 85.2001 5.88899C84.5237 6.55216 83.708 6.88375 82.753 6.88375C81.7981 6.88375 80.9824 6.55216 80.3059 5.88899C79.6295 5.22581 79.2913 4.41674 79.2913 3.46177Z" fill="#222222"/>
<path d="M85.8766 29.1664H79.6516V8.63453H85.8766V29.1664Z" fill="#222222"/>
<path d="M89.8755 29.1664H95.9635V17.6272C95.9635 16.4335 96.2818 15.4586 96.9184 14.7026C97.5551 13.9466 98.3642 13.5685 99.3457 13.5685C100.314 13.5685 101.063 13.9134 101.594 14.6031C102.124 15.2795 102.39 16.2212 102.39 17.4282V29.1664H108.458V17.6272C108.458 16.4335 108.776 15.4586 109.413 14.7026C110.063 13.9466 110.885 13.5685 111.88 13.5685C112.848 13.5685 113.597 13.9134 114.128 14.6031C114.672 15.2795 114.944 16.2212 114.944 17.4282V29.1664H121.012V16.6921C121.012 14.0129 120.375 11.9239 119.102 10.4251C117.842 8.92632 116.044 8.17694 113.71 8.17694C110.288 8.17694 108.007 9.26454 106.866 11.4398C105.924 9.26454 104.067 8.17694 101.295 8.17694C100.062 8.17694 98.961 8.45547 97.9928 9.01254C97.0378 9.5696 96.3614 10.2991 95.9635 11.201V8.63453H89.8755V29.1664Z" fill="#222222"/>
<path fill-rule="evenodd" clip-rule="evenodd" d="M123.996 19.0198V18.8607C123.996 15.6509 125.044 13.0579 127.139 11.0816C129.208 9.09212 131.868 8.09736 135.117 8.09736C138.221 8.09736 140.761 9.10538 142.737 11.1214C144.7 13.1242 145.682 15.5912 145.682 18.5225C145.682 19.0132 145.655 19.6697 145.602 20.4921H130.064C130.13 21.7123 130.654 22.6938 131.636 23.4366C132.63 24.1661 133.93 24.5308 135.535 24.5308C137.458 24.5308 139.129 23.861 140.549 22.5214L144.09 25.9036C141.663 28.4104 138.718 29.6638 135.257 29.6638C131.914 29.6638 129.195 28.6955 127.1 26.7591C125.03 24.8093 123.996 22.2296 123.996 19.0198ZM130.163 16.5329H139.574C139.574 15.578 139.136 14.7689 138.261 14.1057C137.399 13.4425 136.351 13.111 135.117 13.111C133.804 13.111 132.67 13.4425 131.715 14.1057C130.76 14.7689 130.243 15.578 130.163 16.5329Z" fill="#222222"/>
<path d="M150.496 22.3224L146.995 26.0627C148.984 28.5165 151.969 29.7434 155.948 29.7434C158.892 29.7434 161.134 29.1266 162.672 27.8931C164.224 26.6596 165 24.9685 165 22.8198C165 20.061 163.315 18.1179 159.947 16.9905C159.098 16.6855 158.136 16.3937 157.062 16.1151C156.001 15.8233 155.371 15.6376 155.172 15.5581C154.853 15.4254 154.628 15.2795 154.495 15.1204C154.376 14.9479 154.316 14.7291 154.316 14.4638C154.316 14.0659 154.495 13.7476 154.853 13.5089C155.211 13.2701 155.715 13.1507 156.365 13.1507C158.156 13.1507 159.595 13.6548 160.683 14.6628L163.567 10.6638C161.724 8.8998 159.376 8.01778 156.525 8.01778C154.283 8.01778 152.393 8.60137 150.854 9.76856C149.303 10.896 148.527 12.5141 148.527 14.623C148.527 17.3287 150.105 19.2321 153.262 20.3329C154.137 20.6115 155.059 20.8635 156.027 21.0889C157.128 21.3409 157.957 21.6128 158.514 21.9046C158.978 22.1434 159.21 22.475 159.21 22.8994C159.21 24.0135 158.176 24.5706 156.107 24.5706C154.953 24.5706 153.872 24.365 152.864 23.9539C151.856 23.5427 151.067 22.9989 150.496 22.3224Z" fill="#222222"/>
<path d="M54.9108 0.163574L53.0539 5.25676H51.6392C50.6311 5.25678 49.8597 5.44468 49.3822 5.82932C48.9179 6.21396 48.6858 6.83734 48.6858 7.69947V8.63454H52.8837V14.1256H48.7654V29.1664H42.8963V14.1256H36.8283V29.1664H30.9592V14.1256H27.577V8.63454H30.9592V8.05758C30.9592 5.11309 31.6688 3.07714 33.088 1.94975C34.5072 0.782561 36.3906 0.198967 38.7382 0.198967C39.4677 0.198967 40.2834 0.265285 41.1853 0.397919V5.45131C40.8272 5.31867 40.2702 5.25236 39.5141 5.25236C38.5459 5.25236 37.8429 5.44468 37.4052 5.82932C36.9675 6.21396 36.7487 6.83734 36.7487 7.69947V8.63454H42.8963V8.05758C42.8963 5.12635 43.6192 3.09041 45.0649 1.94975C46.5239 0.782561 49.1589 0.163591 51.6392 0.163591L54.9108 0.163574Z" fill="#FEB802"/>
<path d="M6.6848 29.1664H0L11.7382 0.775929H17.3088L29.047 29.1664H22.3622L22.444 29.1664L14.592 8.72296L6.31563 29.1664L6.6848 29.1664Z" fill="#FEB802"/>
</svg>
