<svg width="0" height="0" class="hidden">
    <symbol xmlns="http://www.w3.org/2000/svg" viewBox="0 0 25 19" id="youtube">
        <path d="M24.4919 3.21592C24.3497 2.66299 24.0716 2.15873 23.6855 1.75334C23.2993 1.34795 22.8185 1.05556 22.291 0.905278C20.3349 0.342665 12.5092 0.333506 12.5092 0.333506C12.5092 0.333506 4.68468 0.324347 2.72731 0.8621C2.20009 1.0193 1.7203 1.31582 1.33401 1.72321C0.947708 2.13059 0.667876 2.63514 0.521372 3.18844C0.00548685 5.2374 0.000490111 9.48709 0.000490111 9.48709C0.000490111 9.48709 -0.00450635 13.7577 0.507632 15.7857C0.794929 16.907 1.63808 17.7928 2.70983 18.0951C4.68593 18.6577 12.4904 18.6668 12.4904 18.6668C12.4904 18.6668 20.3161 18.676 22.2723 18.1396C22.8 17.9895 23.2812 17.6978 23.6683 17.2933C24.0554 16.8887 24.335 16.3853 24.4795 15.8328C24.9966 13.7852 25.0003 9.53681 25.0003 9.53681C25.0003 9.53681 25.0253 5.26488 24.4919 3.21592ZM10.0059 13.4241L10.0122 5.57366L16.5163 9.50541L10.0059 13.4241Z"></path>
    </symbol>

    <symbol xmlns="http://www.w3.org/2000/svg" viewBox="0 0 11 21" id="facebook">
        <path d="M7.47 20.4999V11.3918H10.4317L10.8719 7.82567H7.47V5.5542C7.47 4.52515 7.74635 3.82059 9.16987 3.82059H10.9736V0.641199C10.096 0.543618 9.21384 0.496502 8.33118 0.500066C5.71336 0.500066 3.91601 2.15811 3.91601 5.20192V7.819H0.973633V11.3851H3.92244V20.4999H7.47Z"></path>
    </symbol>

    <symbol xmlns="http://www.w3.org/2000/svg" viewBox="0 0 18 18" id="instagram">
        <path d="M11.9839 8.91664C11.9839 7.27601 10.6714 5.96351 9.03077 5.96351C7.39014 5.96351 6.07764 7.27601 6.07764 8.91664C6.07764 10.5573 7.39014 11.8698 9.03077 11.8698C10.6714 11.8698 11.9839 10.5573 11.9839 8.91664ZM13.5152 8.91664C13.5152 11.4323 11.5464 13.401 9.03077 13.401C6.51514 13.401 4.54639 11.4323 4.54639 8.91664C4.54639 6.40101 6.51514 4.43226 9.03077 4.43226C11.5464 4.43226 13.5152 6.40101 13.5152 8.91664ZM14.7183 4.21351C14.7183 4.86976 14.2808 5.30726 13.6245 5.30726C12.9683 5.30726 12.5308 4.86976 12.5308 4.21351C12.5308 3.55725 12.9683 3.11975 13.6245 3.11975C14.2808 3.11975 14.7183 3.66663 14.7183 4.21351ZM9.03077 1.69788C7.71827 1.69788 4.98389 1.5885 3.89014 2.026C3.12452 2.35413 2.46826 3.01038 2.24951 3.77601C1.81201 4.86976 1.92139 7.60413 1.92139 8.91664C1.92139 10.2291 1.81201 12.9635 2.24951 14.0573C2.46826 14.8229 3.12452 15.4791 3.89014 15.6979C4.98389 16.1354 7.82764 16.026 9.03077 16.026C10.2339 16.026 13.0777 16.1354 14.1714 15.6979C14.937 15.3698 15.4839 14.8229 15.812 14.0573C16.2495 12.8541 16.1402 10.1198 16.1402 8.91664C16.1402 7.71351 16.2495 4.86976 15.812 3.77601C15.5933 3.01038 14.937 2.35413 14.1714 2.13538C13.0777 1.5885 10.3433 1.69788 9.03077 1.69788ZM17.7808 8.91664V12.526C17.7808 13.8385 17.3433 15.151 16.3589 16.2448C15.3745 17.2291 14.062 17.6666 12.6402 17.6666H5.42139C4.10889 17.6666 2.79639 17.2291 1.70264 16.2448C0.827637 15.2604 0.280762 13.9479 0.280762 12.526V8.91664V5.30726C0.280762 3.88538 0.827637 2.57288 1.70264 1.5885C2.79639 0.713502 4.10889 0.166626 5.42139 0.166626H12.6402C13.9527 0.166626 15.2652 0.604126 16.3589 1.5885C17.2339 2.57288 17.7808 3.88538 17.7808 5.30726V8.91664Z"></path>
    </symbol>

    <symbol xmlns="http://www.w3.org/2000/svg" viewBox="0 0 22 14" id="vk">
        <path d="M21.2583 1.513C21.4097 1.02464 21.2583 0.666504 20.5425 0.666504H18.1713C17.568 0.666504 17.2922 0.976327 17.1409 1.31661C17.1409 1.31661 15.9353 4.17222 14.2269 6.0238C13.6754 6.56258 13.4235 6.73272 13.1229 6.73272C12.9726 6.73272 12.7542 6.56258 12.7542 6.07421V1.513C12.7542 0.926965 12.5801 0.666504 12.0773 0.666504H8.35134C7.97506 0.666504 7.748 0.937467 7.748 1.19583C7.748 1.75036 8.60219 1.87849 8.68977 3.44125V6.83144C8.68977 7.57396 8.55245 7.70945 8.2497 7.70945C7.44633 7.70945 5.49142 4.84333 4.33123 1.56236C4.10525 0.924864 3.8771 0.667555 3.2716 0.667555H0.901484C0.223536 0.667555 0.0883789 0.977377 0.0883789 1.31766C0.0883789 1.9289 0.891752 4.9536 3.83061 8.95399C5.78984 11.6857 8.54813 13.1665 11.061 13.1665C12.5672 13.1665 12.7531 12.8378 12.7531 12.2707V10.2059C12.7531 9.54842 12.8969 9.41609 13.3738 9.41609C13.7241 9.41609 14.3274 9.58833 15.7342 10.9043C17.3409 12.465 17.6069 13.1655 18.5097 13.1655H20.8799C21.5567 13.1655 21.8952 12.8367 21.7005 12.1877C21.4875 11.5418 20.7198 10.6018 19.7013 9.48961C19.1477 8.85526 18.3205 8.1726 18.0686 7.83127C17.7172 7.39122 17.8188 7.19693 18.0686 6.80624C18.0697 6.80729 20.9577 2.85626 21.2583 1.513V1.513Z"></path>
    </symbol>

    <symbol xmlns="http://www.w3.org/2000/svg" viewBox="0 0 14 22" id="ok">
        <path d="M13.0392 11.6888C12.7481 11.095 11.9268 10.5949 10.8352 11.4388C9.34851 12.6264 6.97816 12.6264 6.97816 12.6264C6.97816 12.6264 4.6078 12.6264 3.12113 11.4388C2.02952 10.5949 1.20822 11.095 0.917122 11.6888C0.397308 12.7306 0.9795 13.2411 2.29983 14.0849C3.43302 14.8142 4.98207 15.0851 5.98011 15.1892L5.14841 16.0227C3.96323 17.1999 2.81964 18.3355 2.03992 19.1272C1.57209 19.6065 1.57209 20.367 2.03992 20.8149L2.18547 20.9816C2.6533 21.4504 3.42263 21.4504 3.89046 20.9816L6.97816 17.8771C8.17373 19.0543 9.30692 20.1899 10.097 20.9816C10.5649 21.4504 11.3238 21.4504 11.802 20.9816L11.9372 20.8149C12.4154 20.367 12.4154 19.6065 11.9372 19.1272L8.83909 16.0227L8.01779 15.1788C9.00543 15.0851 10.5337 14.8038 11.6565 14.0849C12.9768 13.2411 13.559 12.7306 13.0392 11.6888V11.6888ZM6.97816 3.1773C8.41284 3.1773 9.57723 4.34411 9.57723 5.77138C9.57723 7.20906 8.41284 8.36545 6.97816 8.36545C5.54347 8.36545 4.37909 7.20906 4.37909 5.77138C4.37909 4.34411 5.54347 3.1773 6.97816 3.1773V3.1773ZM6.97816 11.0429C9.88912 11.0429 12.2387 8.68841 12.2387 5.77138C12.2387 4.37329 11.6844 3.03246 10.6979 2.04386C9.71137 1.05527 8.37333 0.499878 6.97816 0.499878C5.58298 0.499878 4.24495 1.05527 3.25841 2.04386C2.27187 3.03246 1.71764 4.37329 1.71764 5.77138C1.71764 8.68841 4.0672 11.0429 6.97816 11.0429Z"></path>
    </symbol>

    <symbol xmlns="http://www.w3.org/2000/svg" fill="none" viewBox="0 0 20 20" id="search">
        <path d="M19 19L14.65 14.65M17 9C17 13.4183 13.4183 17 9 17C4.58172 17 1 13.4183 1 9C1 4.58172 4.58172 1 9 1C13.4183 1 17 4.58172 17 9Z"
              stroke="#222222" stroke-width="2" stroke-linecap="round" stroke-linejoin="round"></path>
    </symbol>

    <symbol xmlns="http://www.w3.org/2000/svg" viewBox="0 0 10 12" id="user">
        <path d="M8.55934e-08 9.92969C3.59627e-08 10.4974 0.162761 10.9844 0.488281 11.3906C0.813802 11.7969 1.20573 12 1.66406 12L8.33594 12C8.79427 12 9.1862 11.7969 9.51172 11.3906C9.83724 10.9844 10 10.4974 10 9.92969C10 9.48698 9.97786 9.06901 9.93359 8.67578C9.88932 8.28255 9.80729 7.88672 9.6875 7.48828C9.56771 7.08984 9.41536 6.7487 9.23047 6.46484C9.04557 6.18099 8.80078 5.94922 8.49609 5.76953C8.19141 5.58984 7.84115 5.5 7.44531 5.5C6.76302 6.16667 5.94792 6.5 5 6.5C4.05208 6.5 3.23698 6.16667 2.55469 5.5C2.15885 5.5 1.80859 5.58984 1.50391 5.76953C1.19922 5.94922 0.954427 6.18099 0.769532 6.46484C0.584636 6.7487 0.432292 7.08984 0.3125 7.48828C0.192709 7.88672 0.110678 8.28255 0.0664064 8.67578C0.0221359 9.06901 1.24296e-07 9.48698 8.55934e-08 9.92969ZM2 3C2 3.82812 2.29297 4.53516 2.87891 5.12109C3.46484 5.70703 4.17187 6 5 6C5.82812 6 6.53516 5.70703 7.12109 5.12109C7.70703 4.53516 8 3.82813 8 3C8 2.17188 7.70703 1.46484 7.12109 0.878906C6.53516 0.292968 5.82813 -3.64717e-07 5 -4.37114e-07C4.17188 -5.09511e-07 3.46484 0.292968 2.87891 0.878906C2.29297 1.46484 2 2.17187 2 3Z"></path>
    </symbol>

    <symbol xmlns="http://www.w3.org/2000/svg" viewBox="0 0 14 14" id="comment">
        <path d="M0 1.82613C0 1.34181 0.184374 0.877325 0.512563 0.53486C0.840752 0.192395 1.28587 0 1.75 0H12.25C12.7141 0 13.1592 0.192395 13.4874 0.53486C13.8156 0.877325 14 1.34181 14 1.82613V9.13063C14 9.61495 13.8156 10.0794 13.4874 10.4219C13.1592 10.7644 12.7141 10.9568 12.25 10.9568H10.0625C9.92666 10.9568 9.79269 10.9898 9.67119 11.0532C9.54969 11.1165 9.444 11.2086 9.3625 11.322L7.7 13.6348C7.6185 13.7482 7.51281 13.8402 7.39131 13.9036C7.26981 13.967 7.13584 14 7 14C6.86416 14 6.73019 13.967 6.60869 13.9036C6.48719 13.8402 6.3815 13.7482 6.3 13.6348L4.6375 11.322C4.556 11.2086 4.45031 11.1165 4.32881 11.0532C4.20731 10.9898 4.07334 10.9568 3.9375 10.9568H1.75C1.28587 10.9568 0.840752 10.7644 0.512563 10.4219C0.184374 10.0794 0 9.61495 0 9.13063V1.82613ZM6.29475 4.35166C6.23707 4.26183 6.1705 4.17859 6.09613 4.10331C5.97919 3.97764 5.83976 3.87714 5.68575 3.80747L5.67875 3.80382C5.47153 3.70342 5.24572 3.65168 5.01725 3.65225C4.179 3.65225 3.5 4.3334 3.5 5.17433C3.5 6.01435 4.179 6.69549 5.01725 6.69549C5.31738 6.69549 5.5965 6.60875 5.83187 6.4581C5.712 6.81328 5.49062 7.1922 5.12313 7.57203C5.08851 7.60729 5.06118 7.64957 5.04281 7.69627C5.02444 7.74296 5.01544 7.79309 5.01634 7.84356C5.01724 7.89403 5.02803 7.94377 5.04805 7.98972C5.06807 8.03567 5.0969 8.07686 5.13275 8.11074C5.28413 8.25683 5.52388 8.25227 5.67 8.10161C6.83725 6.88815 6.86875 5.58338 6.49337 4.7178C6.43824 4.58985 6.37174 4.46758 6.29475 4.35257V4.35166ZM9.625 6.4581C9.506 6.81328 9.28375 7.1922 8.91625 7.57203C8.88169 7.60735 8.85442 7.64968 8.83613 7.69641C8.81784 7.74314 8.80891 7.79329 8.80989 7.84376C8.81088 7.89422 8.82175 7.94395 8.84185 7.98987C8.86195 8.03578 8.89084 8.07692 8.92675 8.11074C9.07725 8.25683 9.317 8.25227 9.46312 8.10161C10.6304 6.88815 10.6619 5.58338 10.2874 4.7178C10.2319 4.58983 10.1651 4.46756 10.0879 4.35257C10.0303 4.26242 9.96368 4.17887 9.88925 4.10331C9.77233 3.97763 9.6329 3.87712 9.47888 3.80747L9.47188 3.80382C9.26492 3.70355 9.03942 3.65181 8.81125 3.65225C7.97387 3.65225 7.294 4.3334 7.294 5.17433C7.294 6.01435 7.97387 6.69549 8.81125 6.69549C9.11137 6.69549 9.3905 6.60875 9.62588 6.4581H9.625Z"
             ></path>
    </symbol>

    <symbol fill="none" xmlns="http://www.w3.org/2000/svg" viewBox="0 0 15 10" id="view">
        <path d="M7.5 3C6.95751 3 6.43724 3.21071 6.05365 3.58579C5.67005 3.96086 5.45455 4.46957 5.45455 5C5.45455 5.53043 5.67005 6.03914 6.05365 6.41421C6.43724 6.78929 6.95751 7 7.5 7C8.04249 7 8.56276 6.78929 8.94635 6.41421C9.32995 6.03914 9.54545 5.53043 9.54545 5C9.54545 4.46957 9.32995 3.96086 8.94635 3.58579C8.56276 3.21071 8.04249 3 7.5 3ZM7.5 8.33333C6.59585 8.33333 5.72874 7.98214 5.08941 7.35702C4.45008 6.7319 4.09091 5.88406 4.09091 5C4.09091 4.11595 4.45008 3.2681 5.08941 2.64298C5.72874 2.01786 6.59585 1.66667 7.5 1.66667C8.40415 1.66667 9.27126 2.01786 9.91059 2.64298C10.5499 3.2681 10.9091 4.11595 10.9091 5C10.9091 5.88406 10.5499 6.7319 9.91059 7.35702C9.27126 7.98214 8.40415 8.33333 7.5 8.33333ZM7.5 0C4.09091 0 1.17955 2.07333 0 5C1.17955 7.92667 4.09091 10 7.5 10C10.9091 10 13.8205 7.92667 15 5C13.8205 2.07333 10.9091 0 7.5 0Z"
              fill="#222222"></path>
    </symbol>

    <symbol xmlns="http://www.w3.org/2000/svg" viewBox="0 0 19 19" id="subscribe">
        <path d="M18.426 8.09492L1.42601 0.0949228C1.25482 0.0143732 1.0643 -0.0159642 0.876566 0.00743372C0.688831 0.0308316 0.511584 0.107005 0.365408 0.227108C0.219232 0.347211 0.110125 0.506316 0.0507558 0.685947C-0.00861317 0.865578 -0.015808 1.05837 0.030007 1.24192L1.24201 6.09092L9.00001 8.99992L1.24201 11.9089L0.030007 16.7579C-0.01667 16.9416 -0.0100757 17.1348 0.0490187 17.3149C0.108113 17.495 0.217264 17.6545 0.363704 17.7748C0.510143 17.8951 0.687816 17.9713 0.87594 17.9943C1.06406 18.0173 1.25486 17.9863 1.42601 17.9049L18.426 9.90492C18.5978 9.82417 18.7431 9.69618 18.8448 9.53592C18.9466 9.37566 19.0006 9.18975 19.0006 8.99992C19.0006 8.81009 18.9466 8.62418 18.8448 8.46392C18.7431 8.30367 18.5978 8.17568 18.426 8.09492Z"></path>
    </symbol>

    <symbol xmlns="http://www.w3.org/2000/svg" viewBox="0 0 49 54" id="rating">
        <path fill-rule="evenodd" clip-rule="evenodd" d="M16.3858 37.9281L15.3309 52.0173C15.256 53.0069 16.1368 53.6884 16.9235 53.2473C22.4975 50.125 39.9567 38.6579 48.8066 13.4545C49.2126 12.2981 48.1214 11.2553 47.191 11.9078C41.9638 15.5679 30.5402 23.1333 23.4799 24.5748C23.4799 24.5748 28.0015 21.4355 30.7069 16.6143C30.9728 16.143 30.9498 15.5377 30.655 15.1111L20.7865 0.886634C20.2017 0.0432175 19.0006 0.393634 18.7903 1.46784L15.7176 17.1L1.2973 29.686C0.57472 30.3168 0.722137 31.5916 1.5571 31.9287L16.3858 37.9281Z"></path>
        <path fill-rule="evenodd" clip-rule="evenodd" d="M41.8852 32.3746C40.9729 33.6494 39.0057 36.2703 37.1896 37.8725C36.8271 38.1915 36.8755 38.7292 37.2911 38.9902L46.8889 45.015C47.4665 45.3775 48.2459 44.9473 48.1492 44.3178C47.7021 41.4395 46.4165 35.4365 43.1648 32.2852C42.8023 31.9335 42.1752 31.971 41.8852 32.3746Z"></path>
    </symbol>

    <symbol xmlns="http://www.w3.org/2000/svg" viewBox="0 0 21 21" id="star">
        <path d="M9.57191 1.31082C9.90782 0.474354 11.092 0.474354 11.4279 1.31082L13.4988 6.46779C13.6418 6.82399 13.9761 7.06688 14.3591 7.09285L19.9036 7.4688C20.8029 7.52978 21.1688 8.65596 20.4771 9.23391L16.2125 12.797C15.9179 13.0431 15.7902 13.4362 15.8839 13.8084L17.2397 19.1977C17.4596 20.0719 16.5016 20.7679 15.7382 20.2886L11.0316 17.3338C10.7065 17.1297 10.2933 17.1297 9.96818 17.3338L5.2616 20.2886C4.49819 20.7679 3.5402 20.0719 3.76011 19.1977L5.11591 13.8084C5.20956 13.4362 5.08186 13.0431 4.7873 12.797L0.522669 9.23391C-0.16906 8.65596 0.196859 7.52978 1.09619 7.4688L6.6407 7.09285C7.02367 7.06688 7.35798 6.82399 7.50102 6.46779L9.57191 1.31082Z"></path>
    </symbol>

    <symbol xmlns="http://www.w3.org/2000/svg" viewBox="0 0 18 18" id="glob">
        <path d="M9 0C4.02912 0 0 4.03032 0 9.00048C0 13.9709 4.02912 18 9 18C13.9709 18 18 13.9709 18 9.00048C18 4.03032 13.9709 0 9 0ZM2.49528 10.1926H3.87576C4.10673 11.9317 4.84328 13.5648 5.994 14.8891C4.19376 13.9666 2.8704 12.2438 2.49528 10.1926ZM3.87576 7.8072H2.49528C2.87064 5.75616 4.194 4.03344 5.99424 3.11088C4.8435 4.43513 4.10687 6.06811 3.87576 7.8072ZM7.8072 13.3342C7.02931 12.442 6.50595 11.3569 6.29208 10.1928H7.8072V13.3342ZM7.8072 7.8072H6.29208C6.50606 6.64316 7.0294 5.55817 7.8072 4.66608V7.8072ZM15.5045 7.8072H14.1242C13.8932 6.06823 13.1568 4.43535 12.0062 3.11112C13.806 4.03392 15.1294 5.75664 15.5045 7.8072ZM10.1928 13.3337V10.1926H11.7079C11.4938 11.3566 10.9705 12.4415 10.1928 13.3337ZM10.1928 7.8072V4.66584C10.9707 5.55795 11.494 6.64305 11.7079 7.8072H10.1928ZM12.0055 14.8894C13.1564 13.565 13.8931 11.9318 14.1242 10.1926H15.5047C15.1296 12.2441 13.806 13.9668 12.0055 14.8894Z"></path>
    </symbol>

    <symbol fill="none" xmlns="http://www.w3.org/2000/svg" viewBox="0 0 15 10" id="eye">
        <path d="M7.5 3C6.95751 3 6.43724 3.21071 6.05365 3.58579C5.67005 3.96086 5.45455 4.46957 5.45455 5C5.45455 5.53043 5.67005 6.03914 6.05365 6.41421C6.43724 6.78929 6.95751 7 7.5 7C8.04249 7 8.56276 6.78929 8.94635 6.41421C9.32995 6.03914 9.54545 5.53043 9.54545 5C9.54545 4.46957 9.32995 3.96086 8.94635 3.58579C8.56276 3.21071 8.04249 3 7.5 3ZM7.5 8.33333C6.59585 8.33333 5.72874 7.98214 5.08941 7.35702C4.45008 6.7319 4.09091 5.88406 4.09091 5C4.09091 4.11595 4.45008 3.2681 5.08941 2.64298C5.72874 2.01786 6.59585 1.66667 7.5 1.66667C8.40415 1.66667 9.27126 2.01786 9.91059 2.64298C10.5499 3.2681 10.9091 4.11595 10.9091 5C10.9091 5.88406 10.5499 6.7319 9.91059 7.35702C9.27126 7.98214 8.40415 8.33333 7.5 8.33333ZM7.5 0C4.09091 0 1.17955 2.07333 0 5C1.17955 7.92667 4.09091 10 7.5 10C10.9091 10 13.8205 7.92667 15 5C13.8205 2.07333 10.9091 0 7.5 0Z" fill="#222222"></path>
    </symbol>

    <symbol xmlns="http://www.w3.org/2000/svg" id="burger" viewBox="0 0 49 13">
        <rect width="49" height="4"/>
        <rect x="18" y="9" width="31" height="4"/>
    </symbol>

    <symbol fill="none" xmlns="http://www.w3.org/2000/svg" viewBox="0 0 13 15" id="calendar">
        <path d="M4.33333 6.75V8.25H2.88889V6.75H4.33333ZM7.22222 6.75V8.25H5.77778V6.75H7.22222ZM10.1111 6.75V8.25H8.66667V6.75H10.1111ZM11.5556 1.5C11.9386 1.5 12.306 1.65804 12.5769 1.93934C12.8478 2.22064 13 2.60218 13 3V13.5C13 13.8978 12.8478 14.2794 12.5769 14.5607C12.306 14.842 11.9386 15 11.5556 15H1.44444C1.06135 15 0.693954 14.842 0.423068 14.5607C0.152182 14.2794 0 13.8978 0 13.5V3C0 2.60218 0.152182 2.22064 0.423068 1.93934C0.693954 1.65804 1.06135 1.5 1.44444 1.5H2.16667V0H3.61111V1.5H9.38889V0H10.8333V1.5H11.5556ZM11.5556 13.5V5.25H1.44444V13.5H11.5556ZM4.33333 9.75V11.25H2.88889V9.75H4.33333ZM7.22222 9.75V11.25H5.77778V9.75H7.22222ZM10.1111 9.75V11.25H8.66667V9.75H10.1111Z" fill="#222222"></path>
    </symbol>

    <symbol fill="none" xmlns="http://www.w3.org/2000/svg" viewBox="0 0 16 16" id="edit">
        <path d="M9.08596 2.914L13.0866 6.91463L4.3994 15.6018L0.832527 15.9956C0.355027 16.0484 -0.0484106 15.6446 0.00471439 15.1671L0.401589 11.5978L9.08596 2.914ZM15.561 2.31838L13.6825 0.439941C13.0966 -0.145996 12.1463 -0.145996 11.5603 0.439941L9.79315 2.20713L13.7938 6.20775L15.561 4.44057C16.1469 3.85432 16.1469 2.90432 15.561 2.31838Z" fill="black"></path>
    </symbol>

    <symbol fill="none" xmlns="http://www.w3.org/2000/svg" viewBox="0 0 18 22" id="copy">
        <path d="M5 3V15C5 15.5304 5.21071 16.0391 5.58579 16.4142C5.96086 16.7893 6.46957 17 7 17H15C15.5304 17 16.0391 16.7893 16.4142 16.4142C16.7893 16.0391 17 15.5304 17 15V6.242C17 5.97556 16.9467 5.71181 16.8433 5.46624C16.7399 5.22068 16.5885 4.99824 16.398 4.812L13.083 1.57C12.7094 1.20466 12.2076 1.00007 11.685 1H7C6.46957 1 5.96086 1.21071 5.58579 1.58579C5.21071 1.96086 5 2.46957 5 3V3Z" stroke="black" stroke-width="2" stroke-linecap="round" stroke-linejoin="round"></path>
        <path d="M13 17V19C13 19.5304 12.7893 20.0391 12.4142 20.4142C12.0391 20.7893 11.5304 21 11 21H3C2.46957 21 1.96086 20.7893 1.58579 20.4142C1.21071 20.0391 1 19.5304 1 19V8C1 7.46957 1.21071 6.96086 1.58579 6.58579C1.96086 6.21071 2.46957 6 3 6H5" stroke="black" stroke-width="2" stroke-linecap="round" stroke-linejoin="round"></path>
    </symbol>

    <symbol  xmlns="http://www.w3.org/2000/svg" viewBox="0 0 14 14" id="arrow-right">
        <path d="M0 6.11616V7.88384H10.6061L5.74495 12.7449L7 14L14 7L7 0L5.74495 1.25505L10.6061 6.11616H0Z"></path>
    </symbol>

    <symbol fill="none" xmlns="http://www.w3.org/2000/svg" viewBox="0 0 13 15" id="calendar">
        <path d="M4.33333 6.75V8.25H2.88889V6.75H4.33333ZM7.22222 6.75V8.25H5.77778V6.75H7.22222ZM10.1111 6.75V8.25H8.66667V6.75H10.1111ZM11.5556 1.5C11.9386 1.5 12.306 1.65804 12.5769 1.93934C12.8478 2.22064 13 2.60218 13 3V13.5C13 13.8978 12.8478 14.2794 12.5769 14.5607C12.306 14.842 11.9386 15 11.5556 15H1.44444C1.06135 15 0.693954 14.842 0.423068 14.5607C0.152182 14.2794 0 13.8978 0 13.5V3C0 2.60218 0.152182 2.22064 0.423068 1.93934C0.693954 1.65804 1.06135 1.5 1.44444 1.5H2.16667V0H3.61111V1.5H9.38889V0H10.8333V1.5H11.5556ZM11.5556 13.5V5.25H1.44444V13.5H11.5556ZM4.33333 9.75V11.25H2.88889V9.75H4.33333ZM7.22222 9.75V11.25H5.77778V9.75H7.22222ZM10.1111 9.75V11.25H8.66667V9.75H10.1111Z" fill="#222222"></path>
    </symbol>

    <symbol fill="none" xmlns="http://www.w3.org/2000/svg" viewBox="0 0 12 15" id="location">
        <path d="M6 0C9.31385 0 12 2.76376 12 6.17335C12 8.78198 10.2185 11.6249 6.70154 14.7325C6.50598 14.9053 6.25665 15.0002 5.99885 15C5.74104 14.9998 5.49188 14.9044 5.29662 14.7312L5.064 14.5235C1.70277 11.497 0 8.72373 0 6.17335C0 2.76376 2.68615 0 6 0ZM6 3.79898C5.38796 3.79898 4.80099 4.04914 4.36822 4.49442C3.93544 4.9397 3.69231 5.54363 3.69231 6.17335C3.69231 6.80307 3.93544 7.407 4.36822 7.85228C4.80099 8.29756 5.38796 8.54771 6 8.54771C6.61204 8.54771 7.19901 8.29756 7.63179 7.85228C8.06456 7.407 8.30769 6.80307 8.30769 6.17335C8.30769 5.54363 8.06456 4.9397 7.63179 4.49442C7.19901 4.04914 6.61204 3.79898 6 3.79898Z" fill="#222222"></path>
    </symbol>

    <symbol xmlns="http://www.w3.org/2000/svg" viewBox="0 0 13 20" id="left">
        <path d="M12.6836 17.6333L5.05026 10L12.6836 2.35L10.3336 0L0.333593 10L10.3336 20L12.6836 17.6333Z"></path>
    </symbol>

    <symbol xmlns="http://www.w3.org/2000/svg" viewBox="0 0 13 20" id="right">
        <path d="M0.316406 17.6333L7.94974 10L0.316406 2.35L2.66641 0L12.6664 10L2.66641 20L0.316406 17.6333Z"></path>
    </symbol>

    <symbol fill="none" xmlns="http://www.w3.org/2000/svg" viewBox="0 0 24 24" id="star-2">
        <path d="M12.7596 1.35563L15.2833 7.11188C15.3782 7.32851 15.5296 7.51569 15.7215 7.65388C15.9135 7.79207 16.139 7.8762 16.3746 7.8975L22.5227 8.44875C23.2183 8.55 23.4958 9.40312 22.9914 9.89437L18.3602 13.785C17.9852 14.1 17.8146 14.595 17.9177 15.0731L19.2639 21.375C19.3821 22.0669 18.6564 22.5956 18.0339 22.2675L12.6677 19.125C12.4653 19.0062 12.2349 18.9436 12.0002 18.9436C11.7655 18.9436 11.5351 19.0062 11.3327 19.125L5.96644 22.2656C5.34581 22.5919 4.61831 22.065 4.73644 21.3731L6.08269 15.0712C6.18394 14.5931 6.01519 14.0981 5.64019 13.7831L1.00706 9.89625C0.50456 9.40687 0.78206 8.55188 1.47581 8.45062L7.62394 7.89937C7.8595 7.87808 8.08502 7.79395 8.27697 7.65576C8.46892 7.51756 8.62026 7.33038 8.71519 7.11375L11.2389 1.3575C11.5521 0.7275 12.4483 0.7275 12.7596 1.35563Z" fill="#FDD835"></path>
        <path d="M12.5758 7.4569L12.1483 3.21565C12.1314 2.9794 12.0827 2.5744 12.4614 2.5744C12.7614 2.5744 12.9246 3.19878 12.9246 3.19878L14.2071 6.60378C14.6908 7.8994 14.4921 8.34378 14.0252 8.60628C13.4889 8.90628 12.6977 8.6719 12.5758 7.4569Z" fill="#FFFF8D"></path>
        <path d="M17.8651 13.4081L21.5438 10.5375C21.7257 10.3856 22.0538 10.1438 21.7913 9.86813C21.5832 9.65063 21.0207 9.96376 21.0207 9.96376L17.8013 11.2219C16.8413 11.5538 16.2038 12.045 16.1476 12.6638C16.0744 13.4888 16.8151 14.1244 17.8651 13.4081Z" fill="#F4B400"></path>
    </symbol>

    <symbol viewBox="0 0 25 25" fill="none" xmlns="http://www.w3.org/2000/svg" id="close-icon">
        <rect x="2.82861" width="31" height="4" transform="rotate(45 2.82861 0)" fill="#222222"></rect>
        <rect y="21.9204" width="31" height="4" transform="rotate(-45 0 21.9204)" fill="#222222"></rect>
    </symbol>
</svg>
