<svg width="163" height="220" viewBox="0 0 163 220" fill="none" xmlns="http://www.w3.org/2000/svg">
<path d="M13.7615 217.732C5.83787 191.982 -1.85894 166.67 4.28672 139.695C8.40104 121.636 16.8462 103.984 27.6254 88.9644C52.7227 53.9948 87.0705 32.6355 126.8 17.5364C134.632 14.56 142.5 12.1598 150.782 10.7885C153.977 10.2595 163.729 10.5853 160.492 10.4699C141.97 9.80943 123.159 10.1708 105.004 14.0491C95.3028 16.1216 85.6568 18.9559 76.2688 22.1596C71.8222 23.6771 67.6665 25.0584 74.6292 22.5384C84.4653 18.9785 94.4915 16.1149 104.25 12.2949C113.528 8.6631 123.262 4.53882 133.206 3.07916C140.12 2.06431 164.474 -0.823132 155.489 12.4596C149.933 20.6725 141.27 27.2269 134.319 34.1922C125.745 42.7839 117.575 50.718 110.302 60.4487" stroke="black" stroke-width="3" stroke-linecap="round"/>
</svg>
