<svg width="58" height="44" viewBox="0 0 58 44" fill="none" xmlns="http://www.w3.org/2000/svg">
<path d="M0 44L2.61654 27.2105C3.48872 21.7105 5.03926 16.886 7.26817 12.7368C9.59398 8.58772 13.5673 4.34211 19.188 0L26.6015 7.96053C21.4653 12.3991 18.122 16.6447 16.5714 20.6974H27.183L23.5489 44H0ZM30.817 44L33.4336 27.2105C34.3058 21.7105 35.8563 16.886 38.0852 12.7368C40.411 8.58772 44.3843 4.34211 50.005 0L57.4185 7.96053C52.2824 12.3991 48.939 16.6447 47.3885 20.6974H58L54.3659 44H30.817Z" fill="url(#paint0_linear_93_205)"/>
<defs>
<linearGradient id="paint0_linear_93_205" x1="0.443055" y1="42.6462" x2="64.9593" y2="35.9176" gradientUnits="userSpaceOnUse">
<stop stop-color="#FEB802"/>
<stop offset="1" stop-color="#FEE502"/>
</linearGradient>
</defs>
</svg>
