<svg width="35" height="27" viewBox="0 0 35 27" fill="none" xmlns="http://www.w3.org/2000/svg">
<path d="M35 0L33.4211 10.3026C32.8947 13.6776 31.9591 16.6382 30.614 19.1842C29.2105 21.7303 26.8129 24.3355 23.4211 27L18.9474 22.1151C22.0468 19.3914 24.0643 16.7862 25 14.2993H18.5965L20.7895 0H35ZM16.4035 0L14.8246 10.3026C14.2982 13.6776 13.3626 16.6382 12.0175 19.1842C10.614 21.7303 8.21638 24.3355 4.82456 27L0.35088 22.1151C3.45029 19.3914 5.46784 16.7862 6.40351 14.2993H0L2.19298 0H16.4035Z" fill="url(#paint0_linear_93_204)"/>
<defs>
<linearGradient id="paint0_linear_93_204" x1="34.7326" y1="0.830767" x2="-4.21339" y2="4.8251" gradientUnits="userSpaceOnUse">
<stop stop-color="#FEB802"/>
<stop offset="1" stop-color="#FEE502"/>
</linearGradient>
</defs>
</svg>
