<svg width="125" height="268" viewBox="0 0 125 268" fill="none" xmlns="http://www.w3.org/2000/svg">
<path d="M36.5221 266.177C20.3137 242.216 4.47562 218.635 2.33147 189.007C0.896026 169.172 4.03578 148.397 10.3976 129.595C25.2097 85.8167 53.7877 53.1159 89.8546 25.1571C96.9642 19.6457 104.292 14.7145 112.367 10.7104C115.483 9.16563 125.599 6.44353 122.239 7.33947C103.011 12.467 83.8062 18.7345 66.3786 28.4076C57.0654 33.5769 48.048 39.5111 39.4114 45.7437C35.3207 48.6958 31.486 51.4169 37.8463 46.6466C46.8316 39.9077 56.2302 33.8243 65.0543 26.8426C73.4436 20.2049 82.1468 12.9185 91.9012 8.30259C98.6831 5.0933 122.788 -5.50571 117.725 10.9512C114.594 21.1266 107.751 30.5732 102.796 39.9048C96.6846 51.4153 90.7813 62.1241 86.3633 74.3964" stroke="black" stroke-width="3" stroke-linecap="round"/>
</svg>
